<svg width="300" height="300" viewBox="0 0 300 300" fill="none" xmlns="http://www.w3.org/2000/svg">
<path d="M150 286.758C228.068 286.758 291.354 250.219 291.354 205.146C291.354 160.073 228.068 123.534 150 123.534C71.9323 123.534 8.646 160.073 8.646 205.146C8.646 250.219 71.9323 286.758 150 286.758Z" fill="#F0F0F0"/>
<path d="M120.75 266.988C147.67 266.988 169.494 254.389 169.494 238.848C169.494 223.307 147.67 210.708 120.75 210.708C93.8293 210.708 72.0059 223.307 72.0059 238.848C72.0059 254.389 93.8293 266.988 120.75 266.988Z" fill="#E0E0E0"/>
<path d="M259.368 203.64L253.65 200.34C253.65 200.34 252.252 188.1 253.182 178.62C254.49 165.3 263.094 149.268 273.36 153.036C283.626 156.798 268.656 170.364 265.32 181.668C261.984 192.966 259.368 203.64 259.368 203.64Z" fill="url(#paint0_linear_293_7295)"/>
<path opacity="0.15" d="M259.368 203.64L253.65 200.34C253.65 200.34 252.252 188.1 253.182 178.62C254.49 165.3 263.094 149.268 273.36 153.036C283.626 156.798 268.656 170.364 265.32 181.668C261.984 192.966 259.368 203.64 259.368 203.64Z" fill="black"/>
<path d="M256.362 202.254C256.368 202.254 256.368 202.254 256.374 202.254C256.566 202.248 256.716 202.086 256.71 201.894C255.708 172.296 270.438 157.404 270.588 157.26C270.726 157.128 270.726 156.906 270.594 156.768C270.456 156.63 270.24 156.63 270.102 156.762C269.952 156.912 255 172.014 256.014 201.912C256.02 202.104 256.176 202.254 256.362 202.254Z" fill="white"/>
<path d="M262.962 205.698L258.894 203.352C258.894 203.352 258.204 194.952 262.32 184.746C265.908 175.86 274.8 168.492 279.276 170.04C283.752 171.588 283.638 174.762 281.46 178.092C279.276 181.422 266.004 189.354 262.962 205.698Z" fill="url(#paint1_linear_293_7295)"/>
<path d="M260.814 204.81C261.006 204.81 261.162 204.654 261.162 204.462C261.084 185.748 278.652 173.1 278.832 172.974C278.988 172.866 279.024 172.65 278.916 172.494C278.808 172.338 278.592 172.302 278.436 172.41C278.256 172.536 260.394 185.394 260.472 204.468C260.466 204.654 260.622 204.81 260.814 204.81Z" fill="white"/>
<path d="M47.7957 196.29L53.0757 192.726C53.0757 192.726 55.3977 178.896 53.2377 166.752C50.2017 149.676 38.4237 143.994 34.2237 145.776C30.0237 147.558 29.1237 152.652 36.9657 162.402C41.5917 168.156 47.6337 180.39 47.7957 196.29Z" fill="url(#paint2_linear_293_7295)"/>
<g opacity="0.15">
<path d="M47.7957 196.29L53.0757 192.726C53.0757 192.726 55.3977 178.896 53.2377 166.752C50.2017 149.676 38.4237 143.994 34.2237 145.776C30.0237 147.558 29.1237 152.652 36.9657 162.402C41.5917 168.156 47.6337 180.39 47.7957 196.29Z" fill="black"/>
</g>
<path d="M49.6077 189.45C49.5897 189.45 49.5717 189.45 49.5537 189.45C49.3437 189.426 49.1937 189.234 49.2177 189.024C51.1257 172.944 44.3337 155.502 36.9537 148.56C36.7977 148.416 36.7917 148.176 36.9357 148.02C37.0797 147.87 37.3197 147.858 37.4757 148.002C44.9997 155.064 51.9117 172.794 49.9797 189.108C49.9557 189.3 49.7937 189.444 49.6077 189.45Z" fill="white"/>
<path d="M33.9718 205.614C33.1318 206.118 30.6838 204.3 30.0058 203.862C28.8478 203.118 27.8998 202.044 27.2578 200.826C26.5138 199.41 26.3038 197.874 26.4958 196.29C26.5978 195.468 26.8138 194.664 27.0238 193.86C27.2338 193.074 27.4438 192.288 27.6538 191.496C27.8638 190.722 28.0678 189.918 27.9538 189.12C27.7198 187.518 26.2678 186.42 24.9538 185.472C23.5018 184.428 21.9778 183.036 21.9478 181.104C21.9238 179.61 22.6738 178.212 23.5738 177.024C24.4738 175.836 25.5538 174.78 26.3638 173.526C26.9458 172.626 27.3958 171.57 27.2818 170.502C27.2098 169.836 26.9218 169.218 26.5918 168.636C25.8838 167.388 24.9598 166.254 24.4618 164.91C23.9638 163.566 23.9998 161.88 25.0378 160.896C25.8898 160.086 27.1738 159.948 28.3498 160.002C29.4358 160.05 30.5038 160.524 31.4638 161.034C34.5658 162.684 36.3898 166.284 39.6718 167.538C40.9378 168.018 42.3178 168.102 43.6318 168.426C44.9458 168.744 46.2958 169.392 46.9258 170.592C48.1678 172.956 46.0078 175.944 46.8958 178.464C47.6818 180.696 49.8778 181.512 51.1438 183.51C51.6958 184.386 51.8398 185.406 51.7738 186.438C51.6598 188.184 51.4318 189.468 50.6338 191.424C49.9738 193.038 48.0118 196.146 48.0118 196.146C48.0118 196.146 34.0978 205.536 33.9718 205.614Z" fill="url(#paint3_linear_293_7295)"/>
<path d="M42.084 200.64C42.078 200.64 42.072 200.64 42.072 200.64C41.856 200.634 41.688 200.46 41.694 200.25C42.03 185.058 34.56 168.444 29.262 163.674C29.106 163.53 29.094 163.29 29.232 163.134C29.376 162.978 29.616 162.966 29.772 163.104C35.172 167.97 42.798 184.86 42.456 200.268C42.456 200.472 42.288 200.634 42.084 200.64Z" fill="white"/>
<path d="M39.2818 182.13C39.2458 182.13 39.2038 182.124 39.1678 182.112C34.2598 180.696 28.1818 180.552 28.1158 180.552C27.9058 180.546 27.7378 180.372 27.7438 180.162C27.7498 179.952 27.9058 179.784 28.1338 179.79C28.1938 179.79 34.3738 179.94 39.3778 181.386C39.5818 181.446 39.6958 181.656 39.6418 181.86C39.5938 182.022 39.4498 182.13 39.2818 182.13Z" fill="white"/>
<path d="M180.696 185.844L178.422 184.53C177.702 184.116 177.126 183.108 177.126 182.28V87.768C177.126 86.94 177.708 85.932 178.428 85.518L241.638 49.026C242.358 48.612 243.516 48.612 244.236 49.026L246.51 50.34C247.23 50.754 247.812 51.762 247.812 52.59V147.102C247.812 147.93 247.23 148.938 246.51 149.352L183.3 185.85C182.574 186.264 181.41 186.264 180.696 185.844Z" fill="#455A64"/>
<path d="M247.788 52.38C247.698 51.708 247.152 51.462 246.498 51.84L183.294 88.338C182.934 88.548 182.616 88.896 182.376 89.304L177.498 86.49C177.732 86.082 178.056 85.728 178.416 85.518L241.626 49.026C242.34 48.612 243.504 48.612 244.224 49.026L246.498 50.34C247.158 50.718 247.704 51.6 247.788 52.38Z" fill="#455A64"/>
<path d="M183.072 185.952C182.352 186.258 181.344 186.222 180.696 185.85L178.416 184.53C177.702 184.116 177.12 183.108 177.12 182.28V87.768C177.12 87.354 177.264 86.898 177.498 86.49L182.376 89.304C182.136 89.712 181.992 90.174 181.992 90.588V185.1C181.992 185.844 182.46 186.186 183.072 185.952Z" fill="#263238"/>
<path d="M181.992 90.588V185.1C181.992 185.928 182.574 186.264 183.294 185.85L246.504 149.352C247.224 148.938 247.806 147.93 247.806 147.102V52.59C247.806 51.762 247.224 51.426 246.504 51.84L183.294 88.338C182.574 88.752 181.992 89.76 181.992 90.588Z" fill="url(#paint4_linear_293_7295)"/>
<path d="M167.232 126.612C166.416 126.126 162.63 123.972 162.432 123.858C161.832 123.492 161.616 122.604 162.174 122.004L177.12 105.972L181.992 108.768L167.052 124.806C166.512 125.382 166.686 126.216 167.232 126.612Z" fill="#455A64"/>
<path d="M181.992 108.774L167.052 124.806C166.302 125.61 166.938 126.912 168.03 126.822L181.992 125.67V108.774Z" fill="url(#paint5_linear_293_7295)"/>
<path d="M214.896 79.92C222.264 75.666 228.234 79.116 228.234 87.618C228.234 96.126 222.264 106.47 214.896 110.718C207.528 114.972 201.558 111.522 201.558 103.014C201.558 94.518 207.528 84.174 214.896 79.92Z" fill="url(#paint6_linear_293_7295)"/>
<path d="M214.806 86.6159C217.194 85.2359 219.132 86.3519 219.132 89.1119C219.132 91.8719 217.194 95.2259 214.806 96.6059C212.418 97.9859 210.48 96.8699 210.48 94.1099C210.474 91.3499 212.412 87.9959 214.806 86.6159Z" fill="white"/>
<path d="M223.332 101.328C223.332 96.7919 220.146 94.9559 216.222 97.2239L213.768 98.6399C209.844 100.908 206.658 106.422 206.658 110.952V112.188C207.366 112.422 208.134 112.542 208.95 112.542C210.738 112.548 212.76 111.954 214.896 110.718C218.094 108.87 221.034 105.87 223.332 102.372V101.328Z" fill="white"/>
<path d="M206.448 152.838L223.35 143.082C224.07 142.668 224.652 143.004 224.652 143.832V149.274C224.652 150.102 224.07 151.11 223.35 151.524L206.448 161.28C205.728 161.694 205.146 161.358 205.146 160.53V155.088C205.146 154.26 205.728 153.252 206.448 152.838Z" fill="url(#paint7_linear_293_7295)"/>
<path d="M198.174 140.682L231.612 121.374C232.47 120.876 233.172 121.278 233.172 122.274V124.302C233.172 125.298 232.476 126.504 231.612 127.002L198.174 146.31C197.316 146.808 196.614 146.406 196.614 145.41V143.382C196.62 142.386 197.316 141.174 198.174 140.682Z" fill="#FAFAFA"/>
<path d="M202.086 126.708C202.542 126.444 202.896 126.408 203.148 126.588C203.4 126.774 203.526 127.182 203.526 127.818C203.526 128.454 203.4 129.012 203.148 129.498C202.896 129.978 202.542 130.35 202.086 130.614L201.186 131.136V133.074C201.186 133.14 201.168 133.2 201.138 133.266C201.108 133.332 201.072 133.374 201.03 133.398L200.574 133.662C200.532 133.686 200.496 133.686 200.466 133.656C200.436 133.626 200.418 133.584 200.418 133.518V127.908C200.418 127.842 200.436 127.782 200.466 127.716C200.496 127.65 200.532 127.608 200.574 127.584L202.086 126.708ZM201.186 130.05L202.062 129.546C202.278 129.42 202.446 129.258 202.578 129.054C202.704 128.85 202.77 128.586 202.77 128.262C202.77 127.938 202.704 127.752 202.578 127.698C202.452 127.65 202.278 127.686 202.062 127.806L201.186 128.31V130.05Z" fill="#FAFAFA"/>
<path d="M206.04 124.422C206.1 124.386 206.148 124.386 206.178 124.416C206.208 124.446 206.232 124.506 206.256 124.59L207.636 129.282C207.642 129.3 207.642 129.318 207.642 129.342C207.642 129.408 207.624 129.468 207.594 129.534C207.564 129.6 207.528 129.642 207.486 129.666L207.078 129.9C207.006 129.942 206.952 129.948 206.922 129.918C206.892 129.888 206.874 129.852 206.862 129.81L206.622 128.988L204.84 130.02L204.6 131.124C204.588 131.178 204.57 131.238 204.54 131.304C204.51 131.37 204.456 131.424 204.384 131.472L203.976 131.706C203.934 131.73 203.898 131.73 203.868 131.7C203.838 131.67 203.82 131.628 203.82 131.562C203.82 131.538 203.82 131.52 203.826 131.496L205.206 125.208C205.23 125.094 205.254 125.01 205.284 124.938C205.314 124.872 205.356 124.818 205.422 124.788L206.04 124.422ZM206.352 128.058L205.734 125.94L205.116 128.772L206.352 128.058Z" fill="#FAFAFA"/>
<path d="M209.742 122.196C209.994 122.052 210.216 121.974 210.408 121.968C210.6 121.962 210.762 121.998 210.888 122.082C211.014 122.166 211.11 122.28 211.176 122.43C211.242 122.58 211.278 122.736 211.284 122.898C211.29 122.964 211.272 123.03 211.242 123.09C211.212 123.15 211.17 123.192 211.134 123.216L210.738 123.444C210.672 123.48 210.624 123.492 210.594 123.468C210.564 123.45 210.534 123.414 210.504 123.366C210.45 123.252 210.36 123.174 210.246 123.138C210.132 123.096 209.958 123.144 209.736 123.27C209.64 123.324 209.544 123.396 209.46 123.48C209.37 123.564 209.292 123.654 209.226 123.756C209.16 123.852 209.106 123.96 209.07 124.068C209.034 124.176 209.016 124.284 209.016 124.398C209.016 124.53 209.034 124.632 209.07 124.692C209.106 124.758 209.166 124.794 209.25 124.806C209.334 124.818 209.448 124.812 209.586 124.782C209.724 124.752 209.898 124.716 210.108 124.662C210.336 124.608 210.528 124.584 210.69 124.59C210.852 124.596 210.984 124.644 211.092 124.722C211.194 124.806 211.272 124.926 211.326 125.082C211.374 125.238 211.404 125.436 211.404 125.67C211.404 125.928 211.368 126.192 211.29 126.462C211.218 126.726 211.11 126.984 210.966 127.218C210.828 127.458 210.654 127.68 210.45 127.89C210.246 128.1 210.018 128.28 209.766 128.424C209.556 128.544 209.352 128.622 209.16 128.652C208.968 128.682 208.8 128.67 208.65 128.61C208.5 128.55 208.38 128.436 208.29 128.28C208.2 128.124 208.152 127.92 208.14 127.674C208.134 127.608 208.152 127.542 208.182 127.482C208.212 127.422 208.248 127.38 208.29 127.356L208.686 127.128C208.752 127.092 208.8 127.08 208.83 127.098C208.866 127.116 208.89 127.146 208.914 127.206C208.938 127.266 208.974 127.326 209.01 127.38C209.046 127.434 209.1 127.47 209.16 127.494C209.226 127.518 209.304 127.518 209.4 127.5C209.496 127.482 209.616 127.434 209.76 127.35C209.874 127.284 209.982 127.212 210.09 127.122C210.192 127.038 210.288 126.936 210.366 126.834C210.444 126.726 210.51 126.618 210.558 126.498C210.606 126.378 210.63 126.252 210.63 126.12C210.63 125.994 210.606 125.904 210.552 125.856C210.498 125.808 210.42 125.784 210.312 125.784C210.204 125.79 210.072 125.808 209.916 125.85C209.76 125.886 209.574 125.928 209.37 125.964C209.184 126.006 209.016 126.018 208.878 126C208.734 125.988 208.62 125.934 208.53 125.85C208.44 125.766 208.368 125.64 208.326 125.478C208.278 125.316 208.26 125.106 208.26 124.842C208.26 124.584 208.296 124.32 208.374 124.056C208.446 123.792 208.554 123.546 208.686 123.312C208.818 123.078 208.974 122.868 209.16 122.67C209.34 122.478 209.532 122.322 209.742 122.196Z" fill="#FAFAFA"/>
<path d="M213.684 119.928C213.936 119.784 214.158 119.706 214.35 119.7C214.542 119.694 214.704 119.73 214.83 119.814C214.956 119.898 215.052 120.012 215.118 120.162C215.184 120.312 215.22 120.468 215.226 120.63C215.232 120.696 215.214 120.762 215.184 120.822C215.154 120.882 215.112 120.924 215.076 120.948L214.68 121.176C214.614 121.212 214.566 121.224 214.536 121.2C214.506 121.182 214.476 121.146 214.446 121.098C214.392 120.984 214.302 120.906 214.188 120.87C214.074 120.828 213.906 120.876 213.678 121.002C213.582 121.056 213.486 121.128 213.402 121.212C213.312 121.296 213.234 121.386 213.168 121.482C213.102 121.578 213.048 121.686 213.012 121.794C212.976 121.902 212.958 122.01 212.958 122.124C212.958 122.256 212.976 122.358 213.012 122.418C213.048 122.484 213.108 122.52 213.192 122.532C213.276 122.544 213.39 122.538 213.528 122.508C213.666 122.478 213.84 122.442 214.05 122.388C214.278 122.334 214.47 122.31 214.632 122.316C214.794 122.322 214.932 122.364 215.034 122.448C215.136 122.532 215.214 122.652 215.268 122.808C215.316 122.964 215.346 123.162 215.346 123.396C215.346 123.654 215.31 123.918 215.232 124.188C215.16 124.452 215.052 124.71 214.908 124.944C214.77 125.184 214.596 125.406 214.392 125.616C214.188 125.826 213.96 126.006 213.708 126.15C213.498 126.27 213.294 126.348 213.102 126.384C212.91 126.414 212.742 126.402 212.592 126.342C212.442 126.282 212.322 126.174 212.232 126.012C212.142 125.856 212.088 125.652 212.082 125.406C212.076 125.34 212.094 125.274 212.124 125.214C212.154 125.154 212.19 125.112 212.232 125.088L212.628 124.86C212.694 124.824 212.742 124.812 212.772 124.83C212.808 124.842 212.832 124.878 212.856 124.938C212.88 124.998 212.916 125.058 212.952 125.112C212.988 125.166 213.042 125.202 213.102 125.226C213.168 125.25 213.246 125.25 213.342 125.232C213.438 125.214 213.558 125.166 213.702 125.082C213.816 125.016 213.924 124.944 214.026 124.854C214.128 124.77 214.224 124.674 214.302 124.566C214.38 124.458 214.446 124.35 214.494 124.23C214.542 124.11 214.566 123.984 214.566 123.852C214.566 123.726 214.542 123.636 214.488 123.582C214.434 123.534 214.356 123.51 214.248 123.51C214.14 123.516 214.008 123.534 213.852 123.576C213.696 123.618 213.51 123.654 213.306 123.69C213.12 123.726 212.952 123.744 212.814 123.726C212.676 123.714 212.556 123.66 212.466 123.576C212.376 123.492 212.304 123.366 212.262 123.204C212.214 123.042 212.196 122.832 212.196 122.568C212.196 122.31 212.232 122.046 212.31 121.782C212.382 121.518 212.49 121.272 212.622 121.038C212.754 120.804 212.91 120.594 213.096 120.396C213.276 120.204 213.474 120.048 213.684 119.928Z" fill="#FAFAFA"/>
<path d="M218.058 120.678L217.572 123.558C217.554 123.654 217.53 123.738 217.5 123.81C217.47 123.882 217.428 123.936 217.374 123.966L216.918 124.23C216.864 124.26 216.816 124.26 216.786 124.224C216.756 124.188 216.732 124.128 216.72 124.05L215.994 118.986C215.988 118.962 215.988 118.938 215.988 118.92C215.988 118.854 216.006 118.794 216.036 118.728C216.066 118.662 216.102 118.62 216.144 118.596L216.564 118.356C216.6 118.332 216.636 118.332 216.672 118.344C216.708 118.362 216.726 118.404 216.738 118.488L217.212 121.896L217.632 119.334C217.638 119.286 217.656 119.226 217.686 119.148C217.716 119.07 217.764 119.01 217.83 118.968L218.292 118.698C218.358 118.656 218.406 118.662 218.436 118.71C218.466 118.758 218.484 118.8 218.49 118.836L218.91 120.912L219.384 116.958C219.396 116.862 219.42 116.79 219.45 116.736C219.486 116.682 219.522 116.646 219.558 116.622L219.978 116.382C220.02 116.358 220.056 116.358 220.086 116.388C220.116 116.418 220.134 116.46 220.134 116.526C220.134 116.544 220.134 116.568 220.128 116.598L219.408 122.496C219.396 122.592 219.378 122.67 219.342 122.748C219.312 122.82 219.264 122.874 219.21 122.91L218.754 123.174C218.7 123.204 218.652 123.204 218.628 123.168C218.598 123.126 218.574 123.072 218.556 122.994L218.058 120.678Z" fill="#FAFAFA"/>
<path d="M220.866 118.134C220.878 117.804 220.92 117.474 220.986 117.15C221.058 116.826 221.16 116.514 221.292 116.226C221.43 115.938 221.598 115.668 221.802 115.428C222.006 115.188 222.246 114.984 222.528 114.822C222.804 114.666 223.044 114.588 223.242 114.588C223.446 114.594 223.614 114.66 223.752 114.798C223.89 114.936 223.992 115.122 224.064 115.368C224.136 115.614 224.178 115.896 224.19 116.22C224.196 116.328 224.196 116.448 224.196 116.58C224.196 116.712 224.196 116.85 224.196 116.988C224.196 117.126 224.196 117.27 224.196 117.402C224.196 117.534 224.19 117.66 224.19 117.774C224.178 118.104 224.136 118.434 224.07 118.758C223.998 119.082 223.896 119.394 223.764 119.682C223.626 119.97 223.458 120.234 223.254 120.474C223.05 120.714 222.81 120.912 222.534 121.074C222.258 121.236 222.012 121.314 221.808 121.308C221.604 121.302 221.436 121.236 221.298 121.104C221.16 120.972 221.058 120.78 220.992 120.534C220.92 120.288 220.884 120.006 220.872 119.688C220.866 119.58 220.866 119.46 220.866 119.328C220.866 119.196 220.866 119.058 220.866 118.92C220.866 118.776 220.866 118.638 220.866 118.506C220.86 118.368 220.86 118.242 220.866 118.134ZM223.422 116.7C223.404 116.292 223.32 116.022 223.158 115.884C222.996 115.746 222.786 115.758 222.522 115.908C222.258 116.058 222.048 116.298 221.886 116.616C221.724 116.94 221.64 117.312 221.622 117.738C221.616 117.96 221.61 118.212 221.61 118.482C221.61 118.752 221.616 118.992 221.622 119.208C221.634 119.616 221.724 119.886 221.886 120.018C222.048 120.15 222.258 120.144 222.522 119.988C222.786 119.838 222.996 119.598 223.158 119.286C223.32 118.968 223.404 118.596 223.422 118.17C223.428 117.948 223.434 117.696 223.434 117.432C223.434 117.168 223.428 116.916 223.422 116.7Z" fill="#FAFAFA"/>
<path d="M226.818 112.428C227.286 112.158 227.646 112.116 227.892 112.314C228.138 112.512 228.258 112.902 228.258 113.502C228.258 113.928 228.198 114.324 228.072 114.69C227.946 115.062 227.76 115.392 227.514 115.674L228.294 117.372C228.306 117.402 228.312 117.426 228.312 117.456C228.312 117.51 228.3 117.558 228.276 117.612C228.252 117.666 228.222 117.696 228.186 117.72L227.706 117.996C227.634 118.038 227.574 118.044 227.538 118.008C227.502 117.972 227.478 117.936 227.46 117.9L226.722 116.304L225.972 116.736V118.758C225.972 118.824 225.954 118.884 225.924 118.95C225.894 119.016 225.858 119.058 225.816 119.082L225.36 119.346C225.318 119.37 225.282 119.37 225.252 119.34C225.222 119.31 225.204 119.268 225.204 119.202V113.592C225.204 113.526 225.216 113.466 225.252 113.4C225.282 113.334 225.318 113.292 225.36 113.268L226.818 112.428ZM225.972 115.656L226.788 115.182C227.004 115.056 227.172 114.9 227.304 114.714C227.43 114.522 227.496 114.27 227.496 113.94C227.496 113.616 227.43 113.436 227.304 113.4C227.178 113.364 227.004 113.406 226.788 113.532L225.972 114.006V115.656Z" fill="#FAFAFA"/>
<path d="M230.82 110.118C231.096 109.956 231.342 109.872 231.546 109.866C231.75 109.86 231.924 109.92 232.062 110.052C232.2 110.178 232.302 110.37 232.38 110.628C232.452 110.88 232.5 111.186 232.512 111.54C232.53 111.96 232.53 112.386 232.512 112.824C232.494 113.196 232.452 113.556 232.38 113.892C232.308 114.228 232.2 114.54 232.068 114.828C231.93 115.116 231.762 115.374 231.564 115.602C231.366 115.83 231.126 116.022 230.856 116.178L229.434 117C229.392 117.024 229.356 117.024 229.326 116.994C229.296 116.964 229.278 116.922 229.278 116.856V111.246C229.278 111.18 229.296 111.12 229.326 111.054C229.356 110.988 229.392 110.946 229.434 110.922L230.82 110.118ZM231.744 111.978C231.738 111.798 231.714 111.636 231.672 111.504C231.63 111.366 231.576 111.264 231.498 111.186C231.42 111.114 231.324 111.078 231.21 111.078C231.09 111.078 230.952 111.126 230.79 111.222L230.034 111.66V115.572L230.82 115.122C230.976 115.032 231.108 114.924 231.222 114.792C231.336 114.66 231.426 114.516 231.504 114.354C231.576 114.192 231.636 114.024 231.678 113.838C231.72 113.652 231.738 113.466 231.75 113.274C231.762 112.83 231.762 112.404 231.744 111.978Z" fill="#FAFAFA"/>
<path d="M148.428 23.034C149.478 23.268 150.468 23.64 151.392 24.15C152.322 24.66 153.108 25.284 153.75 26.022C154.392 26.76 154.86 27.6 155.142 28.542C155.424 29.484 155.448 30.498 155.202 31.59C155.004 32.484 154.692 33.228 154.272 33.822C153.846 34.416 153.36 34.932 152.808 35.358C152.256 35.784 151.674 36.162 151.068 36.48C150.456 36.804 149.88 37.11 149.34 37.398C148.794 37.686 148.302 38.004 147.864 38.352C147.426 38.7 147.114 39.114 146.94 39.588C146.838 39.822 146.694 40.014 146.496 40.158C146.298 40.302 146.082 40.344 145.836 40.29L143.292 39.726C143.046 39.672 142.848 39.534 142.698 39.312C142.548 39.09 142.512 38.862 142.59 38.622C142.83 37.764 143.178 37.038 143.652 36.45C144.12 35.862 144.642 35.358 145.218 34.938C145.794 34.518 146.388 34.152 147.006 33.84C147.624 33.534 148.2 33.234 148.734 32.94C149.268 32.646 149.718 32.34 150.096 32.016C150.474 31.692 150.714 31.29 150.816 30.822C151.002 29.976 150.804 29.196 150.21 28.494C149.616 27.792 148.728 27.306 147.546 27.042C145.65 26.622 144.048 27.264 142.734 28.962C142.566 29.184 142.41 29.34 142.26 29.436C142.11 29.532 141.888 29.55 141.6 29.484L138.888 28.884C138.69 28.842 138.528 28.734 138.414 28.566C138.3 28.398 138.264 28.206 138.312 27.984C138.504 27.21 138.924 26.466 139.56 25.752C140.196 25.038 140.976 24.438 141.888 23.952C142.806 23.466 143.826 23.124 144.96 22.932C146.088 22.74 147.246 22.776 148.428 23.034ZM145.554 42.342C145.8 42.396 145.992 42.534 146.13 42.75C146.268 42.966 146.31 43.2 146.256 43.446L145.602 46.392C145.548 46.638 145.41 46.83 145.194 46.968C144.978 47.106 144.744 47.148 144.498 47.094L141.618 46.458C141.372 46.404 141.18 46.266 141.042 46.05C140.904 45.834 140.862 45.6 140.916 45.354L141.57 42.408C141.624 42.162 141.762 41.97 141.978 41.832C142.194 41.694 142.428 41.652 142.674 41.706L145.554 42.342Z" fill="url(#paint8_linear_293_7295)"/>
<path d="M151.632 51.18C152.364 51.06 153.09 51.042 153.816 51.132C154.542 51.222 155.208 51.42 155.808 51.726C156.408 52.038 156.924 52.458 157.344 52.986C157.77 53.514 158.04 54.162 158.166 54.924C158.268 55.548 158.256 56.106 158.142 56.598C158.022 57.09 157.842 57.54 157.596 57.96C157.35 58.374 157.074 58.764 156.768 59.124C156.462 59.484 156.168 59.826 155.892 60.156C155.616 60.48 155.382 60.81 155.19 61.146C154.998 61.482 154.908 61.824 154.914 62.172C154.908 62.352 154.866 62.508 154.776 62.652C154.686 62.796 154.554 62.88 154.386 62.91L152.61 63.198C152.436 63.228 152.274 63.186 152.124 63.084C151.974 62.982 151.89 62.844 151.878 62.67C151.812 62.058 151.854 61.506 152.004 61.008C152.154 60.51 152.358 60.054 152.616 59.634C152.874 59.214 153.162 58.83 153.48 58.476C153.798 58.122 154.092 57.78 154.356 57.456C154.62 57.132 154.836 56.82 154.992 56.514C155.148 56.208 155.202 55.89 155.148 55.566C155.052 54.978 154.722 54.528 154.164 54.228C153.606 53.928 152.91 53.844 152.088 53.982C150.762 54.198 149.898 55.02 149.496 56.442C149.448 56.628 149.388 56.766 149.316 56.868C149.244 56.97 149.106 57.036 148.908 57.066L147.018 57.378C146.88 57.402 146.748 57.372 146.634 57.3C146.52 57.222 146.448 57.108 146.424 56.952C146.352 56.406 146.424 55.824 146.652 55.2C146.88 54.582 147.222 53.994 147.684 53.448C148.146 52.902 148.716 52.422 149.388 52.008C150.054 51.594 150.804 51.318 151.632 51.18ZM154.728 64.29C154.902 64.26 155.058 64.302 155.202 64.404C155.346 64.506 155.43 64.644 155.46 64.818L155.796 66.876C155.826 67.05 155.784 67.206 155.682 67.35C155.58 67.494 155.442 67.578 155.268 67.608L153.258 67.938C153.084 67.968 152.928 67.926 152.784 67.824C152.64 67.722 152.55 67.584 152.526 67.41L152.19 65.352C152.16 65.184 152.202 65.022 152.304 64.878C152.406 64.734 152.544 64.644 152.718 64.62L154.728 64.29Z" fill="url(#paint9_linear_293_7295)"/>
<g opacity="0.2">
<path d="M151.632 51.18C152.364 51.06 153.09 51.042 153.816 51.132C154.542 51.222 155.208 51.42 155.808 51.726C156.408 52.038 156.924 52.458 157.344 52.986C157.77 53.514 158.04 54.162 158.166 54.924C158.268 55.548 158.256 56.106 158.142 56.598C158.022 57.09 157.842 57.54 157.596 57.96C157.35 58.374 157.074 58.764 156.768 59.124C156.462 59.484 156.168 59.826 155.892 60.156C155.616 60.48 155.382 60.81 155.19 61.146C154.998 61.482 154.908 61.824 154.914 62.172C154.908 62.352 154.866 62.508 154.776 62.652C154.686 62.796 154.554 62.88 154.386 62.91L152.61 63.198C152.436 63.228 152.274 63.186 152.124 63.084C151.974 62.982 151.89 62.844 151.878 62.67C151.812 62.058 151.854 61.506 152.004 61.008C152.154 60.51 152.358 60.054 152.616 59.634C152.874 59.214 153.162 58.83 153.48 58.476C153.798 58.122 154.092 57.78 154.356 57.456C154.62 57.132 154.836 56.82 154.992 56.514C155.148 56.208 155.202 55.89 155.148 55.566C155.052 54.978 154.722 54.528 154.164 54.228C153.606 53.928 152.91 53.844 152.088 53.982C150.762 54.198 149.898 55.02 149.496 56.442C149.448 56.628 149.388 56.766 149.316 56.868C149.244 56.97 149.106 57.036 148.908 57.066L147.018 57.378C146.88 57.402 146.748 57.372 146.634 57.3C146.52 57.222 146.448 57.108 146.424 56.952C146.352 56.406 146.424 55.824 146.652 55.2C146.88 54.582 147.222 53.994 147.684 53.448C148.146 52.902 148.716 52.422 149.388 52.008C150.054 51.594 150.804 51.318 151.632 51.18ZM154.728 64.29C154.902 64.26 155.058 64.302 155.202 64.404C155.346 64.506 155.43 64.644 155.46 64.818L155.796 66.876C155.826 67.05 155.784 67.206 155.682 67.35C155.58 67.494 155.442 67.578 155.268 67.608L153.258 67.938C153.084 67.968 152.928 67.926 152.784 67.824C152.64 67.722 152.55 67.584 152.526 67.41L152.19 65.352C152.16 65.184 152.202 65.022 152.304 64.878C152.406 64.734 152.544 64.644 152.718 64.62L154.728 64.29Z" fill="black"/>
</g>
<path d="M168.594 54.414C168.762 54.534 168.864 54.696 168.9 54.906C168.936 55.116 168.894 55.302 168.774 55.47L167.346 57.48C167.226 57.648 167.064 57.75 166.854 57.786C166.644 57.822 166.458 57.78 166.29 57.66L164.328 56.262C164.16 56.142 164.058 55.98 164.022 55.77C163.986 55.56 164.028 55.374 164.148 55.206L165.576 53.196C165.696 53.028 165.858 52.926 166.068 52.89C166.278 52.854 166.464 52.896 166.632 53.016L168.594 54.414ZM176.904 40.788C177.618 41.298 178.248 41.892 178.782 42.57C179.316 43.248 179.712 43.968 179.964 44.73C180.216 45.492 180.294 46.272 180.21 47.07C180.126 47.868 179.814 48.642 179.286 49.386C178.854 49.998 178.38 50.46 177.87 50.772C177.36 51.084 176.832 51.318 176.28 51.462C175.728 51.612 175.17 51.708 174.612 51.756C174.048 51.804 173.52 51.852 173.016 51.894C172.512 51.936 172.044 52.02 171.6 52.146C171.156 52.266 170.796 52.482 170.514 52.782C170.364 52.926 170.19 53.022 169.998 53.07C169.806 53.118 169.626 53.082 169.458 52.962L167.724 51.726C167.556 51.606 167.448 51.438 167.406 51.228C167.364 51.012 167.406 50.832 167.544 50.67C168 50.1 168.492 49.668 169.032 49.374C169.572 49.08 170.124 48.87 170.694 48.732C171.258 48.594 171.828 48.51 172.392 48.474C172.956 48.438 173.484 48.396 173.976 48.348C174.468 48.3 174.912 48.21 175.296 48.084C175.68 47.958 175.992 47.736 176.22 47.418C176.634 46.842 176.724 46.188 176.502 45.468C176.28 44.748 175.764 44.1 174.96 43.53C173.664 42.612 172.254 42.582 170.724 43.44C170.526 43.554 170.358 43.62 170.214 43.644C170.07 43.668 169.902 43.608 169.704 43.47L167.85 42.156C167.712 42.06 167.628 41.928 167.592 41.766C167.556 41.604 167.598 41.448 167.706 41.292C168.102 40.77 168.648 40.344 169.356 40.008C170.064 39.672 170.838 39.468 171.684 39.396C172.53 39.318 173.406 39.39 174.324 39.606C175.236 39.816 176.1 40.212 176.904 40.788Z" fill="url(#paint10_linear_293_7295)"/>
<g opacity="0.6">
<path d="M168.594 54.414C168.762 54.534 168.864 54.696 168.9 54.906C168.936 55.116 168.894 55.302 168.774 55.47L167.346 57.48C167.226 57.648 167.064 57.75 166.854 57.786C166.644 57.822 166.458 57.78 166.29 57.66L164.328 56.262C164.16 56.142 164.058 55.98 164.022 55.77C163.986 55.56 164.028 55.374 164.148 55.206L165.576 53.196C165.696 53.028 165.858 52.926 166.068 52.89C166.278 52.854 166.464 52.896 166.632 53.016L168.594 54.414ZM176.904 40.788C177.618 41.298 178.248 41.892 178.782 42.57C179.316 43.248 179.712 43.968 179.964 44.73C180.216 45.492 180.294 46.272 180.21 47.07C180.126 47.868 179.814 48.642 179.286 49.386C178.854 49.998 178.38 50.46 177.87 50.772C177.36 51.084 176.832 51.318 176.28 51.462C175.728 51.612 175.17 51.708 174.612 51.756C174.048 51.804 173.52 51.852 173.016 51.894C172.512 51.936 172.044 52.02 171.6 52.146C171.156 52.266 170.796 52.482 170.514 52.782C170.364 52.926 170.19 53.022 169.998 53.07C169.806 53.118 169.626 53.082 169.458 52.962L167.724 51.726C167.556 51.606 167.448 51.438 167.406 51.228C167.364 51.012 167.406 50.832 167.544 50.67C168 50.1 168.492 49.668 169.032 49.374C169.572 49.08 170.124 48.87 170.694 48.732C171.258 48.594 171.828 48.51 172.392 48.474C172.956 48.438 173.484 48.396 173.976 48.348C174.468 48.3 174.912 48.21 175.296 48.084C175.68 47.958 175.992 47.736 176.22 47.418C176.634 46.842 176.724 46.188 176.502 45.468C176.28 44.748 175.764 44.1 174.96 43.53C173.664 42.612 172.254 42.582 170.724 43.44C170.526 43.554 170.358 43.62 170.214 43.644C170.07 43.668 169.902 43.608 169.704 43.47L167.85 42.156C167.712 42.06 167.628 41.928 167.592 41.766C167.556 41.604 167.598 41.448 167.706 41.292C168.102 40.77 168.648 40.344 169.356 40.008C170.064 39.672 170.838 39.468 171.684 39.396C172.53 39.318 173.406 39.39 174.324 39.606C175.236 39.816 176.1 40.212 176.904 40.788Z" fill="white"/>
</g>
<path d="M123.918 107.526H102.6V55.878C102.6 46.536 110.172 38.964 119.514 38.964H121.482C130.824 38.964 138.396 46.536 138.396 55.878V93.048C138.396 101.046 131.91 107.526 123.918 107.526Z" fill="#263238"/>
<path d="M100.524 231.864C100.35 233.16 99.9782 234.678 99.9062 238.344C99.8342 242.28 99.1082 243.678 99.0122 246.906C98.9042 250.596 99.5402 251.976 101.04 254.052C102.54 256.128 106.47 258.006 108.126 254.502C109.806 250.956 109.572 248.7 109.044 245.082C108.492 241.338 108.426 239.274 108.108 236.418C107.826 233.904 107.49 231.99 107.49 231.99L100.524 231.864Z" fill="#263238"/>
<path d="M111.696 205.722L98.7363 205.488C98.9283 214.14 100.302 223.746 100.53 231.864C100.572 233.394 100.494 243.738 101.07 246.882C101.934 251.604 107.544 250.968 107.844 248.142C108.144 245.316 107.484 233.232 107.502 231.99C107.454 226.782 109.89 217.992 111.174 208.644C111.228 208.188 111.636 206.172 111.696 205.722Z" fill="#FFA8A7"/>
<path d="M128.346 225.132C128.346 225.132 127.836 224.856 127.728 225.402C127.602 226.05 127.416 227.394 127.146 228.456C126.768 229.938 126.462 232.38 126.684 233.586C126.906 234.792 129.726 236.352 131.556 236.91C134.256 237.738 136.104 239.088 137.58 240.48C139.392 242.184 143.298 243.792 145.962 243.774C149.112 243.75 151.308 242.724 152.346 241.038C153.432 239.28 151.398 239.148 147.804 236.814C146.988 236.286 146.058 235.686 145.008 235.002C139.308 231.276 137.22 229.284 135.606 225.558L128.346 225.132Z" fill="#263238"/>
<path d="M135.648 222.822C135.552 220.14 137.388 197.412 137.388 197.412L125.076 203.022C127.71 218.754 128.274 222.468 128.322 225.042C128.304 225.102 128.25 225.318 128.25 225.702C128.262 228.756 131.712 230.406 134.4 232.446C135.462 233.25 138.552 235.626 141.678 237.198C143.634 238.182 147.606 238.272 148.098 237.012C144.822 234.51 140.058 230.766 137.454 227.916C136.218 226.554 135.744 225.504 135.648 222.822Z" fill="#FFA8A7"/>
<path d="M104.046 121.296C99.3183 131.676 99.3183 139.698 100.104 152.94C100.818 165.084 101.964 175.782 101.964 175.782C101.784 177.936 98.7843 182.142 98.4003 191.67C98.0403 200.574 99.0123 211.896 99.0123 211.896C99.0123 211.896 105.738 215.622 110.712 211.866C110.712 211.866 115.512 188.952 116.916 177.804C118.146 168.078 120.276 155.646 120.276 155.646L124.794 177.75C124.794 177.75 123.078 183.198 122.676 187.35C122.04 193.908 125.706 206.784 125.706 206.784C125.706 206.784 132.654 208.86 136.896 205.092C136.896 205.092 138.486 184.158 139.074 176.262C139.866 165.684 138.198 137.052 136.896 121.89L104.046 121.296Z" fill="#455A64"/>
<path d="M120.271 155.646L122.137 139.008C122.137 139.008 130.501 137.892 134.293 134.328C134.293 134.328 131.449 139.542 124.435 140.556L121.735 156.042L124.789 177.756L120.271 155.646Z" fill="#263238"/>
<path d="M154.14 117.204C154.662 112.104 154.638 108.708 154.596 108.054C154.416 105.414 153.942 104.982 150.252 100.308C145.266 93.99 141.012 88.314 136.518 82.668C133.308 78.636 129.93 78.012 126.63 78.198C124.326 78.324 128.82 89.406 131.088 95.964L144.018 109.872C144.414 110.424 144.6 111.096 144.534 111.774L143.742 123.612L147.612 128.79C147.606 128.79 153.468 123.732 154.14 117.204Z" fill="#FFA8A7"/>
<path d="M114.168 78.5521C111.666 78.7261 107.118 79.1221 107.118 79.1221C104.496 80.5861 103.83 81.7861 103.344 85.2721C103.134 86.7541 104.346 90.7081 105.384 96.3301L107.352 106.752L107.136 111.924C106.116 115.08 103.8 118.998 101.766 124.776C111.786 130.368 120.186 130.572 127.806 129.594C133.614 128.85 136.692 127.44 137.718 126.054C137.502 120.342 137.1 116.82 137.004 110.856C136.962 108.348 137.112 105.822 137.208 102.942C141.108 99.7381 141.15 94.4161 139.026 90.9721C134.088 82.9741 129.282 77.9401 126.102 78.1981L114.168 78.5521Z" fill="url(#paint11_linear_293_7295)"/>
<path opacity="0.6" d="M114.168 78.5521C111.666 78.7261 107.118 79.1221 107.118 79.1221C104.496 80.5861 103.83 81.7861 103.344 85.2721C103.134 86.7541 104.346 90.7081 105.384 96.3301L107.352 106.752L107.136 111.924C106.116 115.08 103.8 118.998 101.766 124.776C111.786 130.368 120.186 130.572 127.806 129.594C133.614 128.85 136.692 127.44 137.718 126.054C137.502 120.342 137.1 116.82 137.004 110.856C136.962 108.348 137.112 105.822 137.208 102.942C141.108 99.7381 141.15 94.4161 139.026 90.9721C134.088 82.9741 129.282 77.9401 126.102 78.1981L114.168 78.5521Z" fill="white"/>
<path opacity="0.1" d="M129.45 103.032C129.45 103.032 124.872 106.584 119.652 104.73C114.432 102.876 113.67 98.316 113.67 98.316C113.67 98.316 113.118 104.286 119.7 106.32C126.06 108.282 129.45 103.032 129.45 103.032Z" fill="black"/>
<path d="M135.654 62.166C135.456 70.83 132.648 72.972 131.238 73.584C129.828 74.202 127.11 73.824 124.47 73.386V78.582C124.47 78.582 127.518 81.774 127.29 84.156C127.056 86.544 122.502 86.808 119.082 84.474C116.586 82.776 114.804 80.832 114.024 79.908C113.742 79.572 113.586 79.152 113.586 78.714V66.48C113.586 66.48 112.14 68.01 109.578 66.258C107.022 64.512 106.806 61.248 108.366 59.406C109.482 58.098 112.308 58.002 113.67 60.042C114.432 61.536 114.54 63.036 115.392 62.418C117.672 60.774 116.448 57.042 119.208 55.194C119.214 55.194 119.214 55.188 119.22 55.188C120.042 54.744 120.978 54.324 122.028 53.964C126.942 52.266 131.202 50.838 132.228 47.478C134.166 48.63 135.894 51.948 135.654 62.166Z" fill="#FFA8A7"/>
<path d="M125.964 69.906C126.594 69.906 127.104 69.3956 127.104 68.766C127.104 68.1364 126.594 67.626 125.964 67.626C125.335 67.626 124.824 68.1364 124.824 68.766C124.824 69.3956 125.335 69.906 125.964 69.906Z" fill="#B16668"/>
<path d="M125.208 60.852C125.244 61.536 124.734 62.118 124.074 62.154C123.414 62.184 122.85 61.656 122.814 60.966C122.778 60.282 123.288 59.7 123.948 59.664C124.608 59.634 125.172 60.168 125.208 60.852Z" fill="#263238"/>
<path d="M134.298 60.9721C134.328 61.5961 133.866 62.1241 133.266 62.1541C132.606 62.1841 132.156 61.7641 132.12 61.0741C132.09 60.4501 132.552 59.9221 133.152 59.8921C133.752 59.8621 134.268 60.3481 134.298 60.9721Z" fill="#263238"/>
<path d="M123.666 63.936C121.512 63.936 119.766 62.184 119.766 60.036C119.766 57.384 122.502 57.384 123.666 57.384C124.836 57.384 127.566 57.384 127.566 60.036C127.566 62.184 125.814 63.936 123.666 63.936ZM123.666 57.996C121.302 57.996 120.378 58.566 120.378 60.036C120.378 61.848 121.854 63.324 123.666 63.324C125.478 63.324 126.954 61.848 126.954 60.036C126.954 58.566 126.03 57.996 123.666 57.996Z" fill="#455A64"/>
<path d="M133.572 63.936C131.418 63.936 129.672 62.184 129.672 60.036C129.672 57.384 132.408 57.384 133.572 57.384C134.742 57.384 137.472 57.384 137.472 60.036C137.472 62.184 135.72 63.936 133.572 63.936ZM133.572 57.996C131.208 57.996 130.284 58.566 130.284 60.036C130.284 61.848 131.76 63.324 133.572 63.324C135.384 63.324 136.86 61.848 136.86 60.036C136.86 58.566 135.936 57.996 133.572 57.996Z" fill="#455A64"/>
<path d="M128.172 58.776L128.364 66.066L132.198 64.878L128.172 58.776Z" fill="#F28F8F"/>
<path d="M124.464 73.386C121.68 73.02 115.95 71.376 115.056 69.108C115.056 69.108 115.356 70.53 117.066 72C118.776 73.47 124.464 75.12 124.464 75.12V73.386Z" fill="#F28F8F"/>
<path d="M124.602 55.236L122.058 56.784C121.644 56.052 121.872 55.11 122.574 54.684C123.276 54.258 124.182 54.504 124.602 55.236Z" fill="#263238"/>
<path d="M134.952 56.9641L132.12 55.9741C132.366 55.1761 133.2 54.7501 133.98 55.0201C134.766 55.2961 135.198 56.1661 134.952 56.9641Z" fill="#263238"/>
<path d="M127.26 60.348C127.092 60.348 126.954 60.21 126.954 60.036C126.954 59.538 127.944 59.214 128.826 59.214C129.708 59.214 130.284 59.538 130.284 60.036C130.284 60.204 130.146 60.342 129.978 60.342C129.81 60.342 129.672 60.204 129.672 60.036C129.642 59.982 129.36 59.832 128.826 59.832C128.292 59.832 127.596 59.982 127.566 60.042C127.566 60.21 127.428 60.348 127.26 60.348Z" fill="#455A64"/>
<path d="M120.078 60.084C120.066 60.084 120.054 60.084 120.042 60.084L113.184 59.46C113.058 59.346 112.734 59.01 112.062 58.728L120.114 59.472C120.282 59.49 120.402 59.646 120.384 59.814C120.366 59.97 120.234 60.084 120.078 60.084Z" fill="#455A64"/>
<path d="M91.9201 67.236C94.1641 64.242 95.6941 61.974 97.7401 59.406C98.9041 57.948 99.6481 56.904 100.764 55.41C101.532 54.378 101.982 53.514 102.84 53.19C103.8 52.83 104.724 52.122 105.342 51.474C105.786 51.012 106.146 50.478 106.524 49.962C107.808 48.234 109.338 46.692 111.054 45.396C112.86 44.034 114.864 42.996 116.718 41.7C117.822 40.926 119.01 39.642 117.666 38.442C117.264 38.082 116.754 37.872 116.232 37.758C112.968 37.044 110.118 38.172 106.926 38.988C105.54 39.342 104.172 39.786 102.858 40.362C102.222 40.638 101.586 40.944 101.058 41.394C100.236 42.096 99.7441 43.098 99.2101 44.04C97.7761 46.572 94.8001 48.804 92.7061 50.772C90.2521 53.082 88.0561 55.2 85.2541 57.75C82.7341 60.042 80.2681 62.16 77.9521 64.662C76.0381 66.732 76.7341 68.358 77.0101 68.916C78.5701 72.12 80.3161 73.272 82.3981 75.258C86.0101 78.696 98.4481 88.596 102.576 91.86C103.458 92.562 104.154 93.468 104.598 94.5L105.384 96.33C110.088 97.194 113.226 90.132 109.332 81.63C108.702 80.25 107.7 79.074 106.47 78.18C101.556 74.604 91.9201 67.236 91.9201 67.236Z" fill="#FFA8A7"/>
<path d="M91.9204 67.236C91.9204 67.236 89.7964 70.08 86.1724 71.196C86.1724 71.196 89.1724 71.964 93.2824 68.274L91.9204 67.236Z" fill="#F28F8F"/>
<path d="M152.916 110.946H152.934L152.166 110.286V110.298C151.992 110.16 151.722 110.118 151.374 110.208L143.046 112.476C142.272 112.686 141.438 113.472 141.174 114.228L135.18 131.526C135.042 131.928 135.096 132.234 135.288 132.408H135.282L136.074 133.092V133.08C136.248 133.224 136.518 133.272 136.872 133.176L145.2 130.908C145.974 130.698 146.808 129.912 147.072 129.156C148.248 125.754 151.89 115.26 153.066 111.858C153.216 111.432 153.144 111.108 152.916 110.946Z" fill="#455A64"/>
<path d="M135.942 132.18L141.936 114.882C142.2 114.126 143.034 113.34 143.808 113.13L152.142 110.862C152.916 110.652 153.33 111.096 153.066 111.852C151.89 115.254 148.248 125.748 147.072 129.15C146.808 129.906 145.974 130.692 145.2 130.902L136.872 133.17C136.098 133.38 135.684 132.936 135.942 132.18Z" fill="url(#paint12_linear_293_7295)"/>
<path d="M142.908 113.616C142.476 113.958 142.104 114.432 141.942 114.888L135.942 132.18C135.81 132.57 135.852 132.87 136.026 133.05L135.282 132.408L135.288 132.402C135.09 132.228 135.036 131.922 135.174 131.52L141.174 114.222C141.318 113.796 141.66 113.364 142.062 113.022L142.908 113.616Z" fill="#37474F"/>
<path d="M150.63 118.83C150.042 120.594 147.948 121.77 144.51 122.586C141.072 123.402 139.164 127.056 139.716 128.166C140.274 129.276 145.83 130.308 148.056 129.99C150.282 129.672 152.52 126.456 153.192 125.46C153.864 124.464 154.65 117.516 153.936 116.562C153.222 115.608 151.716 115.758 151.716 115.758L150.63 118.83Z" fill="#F28F8F"/>
<defs>
<linearGradient id="paint0_linear_293_7295" x1="252.863" y1="178.059" x2="276.904" y2="178.059" gradientUnits="userSpaceOnUse">
<stop stop-color="#4A58F9"/>
<stop offset="1" stop-color="#8BEAFE"/>
</linearGradient>
<linearGradient id="paint1_linear_293_7295" x1="258.851" y1="187.766" x2="282.925" y2="187.766" gradientUnits="userSpaceOnUse">
<stop stop-color="#4A58F9"/>
<stop offset="1" stop-color="#8BEAFE"/>
</linearGradient>
<linearGradient id="paint2_linear_293_7295" x1="31.0522" y1="170.877" x2="54.1575" y2="170.877" gradientUnits="userSpaceOnUse">
<stop stop-color="#4A58F9"/>
<stop offset="1" stop-color="#8BEAFE"/>
</linearGradient>
<linearGradient id="paint3_linear_293_7295" x1="21.9473" y1="182.846" x2="51.7887" y2="182.846" gradientUnits="userSpaceOnUse">
<stop stop-color="#4A58F9"/>
<stop offset="1" stop-color="#8BEAFE"/>
</linearGradient>
<linearGradient id="paint4_linear_293_7295" x1="181.992" y1="118.845" x2="247.806" y2="118.845" gradientUnits="userSpaceOnUse">
<stop stop-color="#4A58F9"/>
<stop offset="1" stop-color="#8BEAFE"/>
</linearGradient>
<linearGradient id="paint5_linear_293_7295" x1="166.726" y1="117.8" x2="181.992" y2="117.8" gradientUnits="userSpaceOnUse">
<stop stop-color="#4A58F9"/>
<stop offset="1" stop-color="#8BEAFE"/>
</linearGradient>
<linearGradient id="paint6_linear_293_7295" x1="201.558" y1="95.3189" x2="228.234" y2="95.3189" gradientUnits="userSpaceOnUse">
<stop stop-color="#4A58F9"/>
<stop offset="1" stop-color="#8BEAFE"/>
</linearGradient>
<linearGradient id="paint7_linear_293_7295" x1="205.146" y1="152.181" x2="224.652" y2="152.181" gradientUnits="userSpaceOnUse">
<stop stop-color="#4A58F9"/>
<stop offset="1" stop-color="#8BEAFE"/>
</linearGradient>
<linearGradient id="paint8_linear_293_7295" x1="138.292" y1="34.9636" x2="155.371" y2="34.9636" gradientUnits="userSpaceOnUse">
<stop stop-color="#4A58F9"/>
<stop offset="1" stop-color="#8BEAFE"/>
</linearGradient>
<linearGradient id="paint9_linear_293_7295" x1="146.397" y1="59.5114" x2="158.236" y2="59.5114" gradientUnits="userSpaceOnUse">
<stop stop-color="#4A58F9"/>
<stop offset="1" stop-color="#8BEAFE"/>
</linearGradient>
<linearGradient id="paint10_linear_293_7295" x1="164.01" y1="48.582" x2="180.243" y2="48.582" gradientUnits="userSpaceOnUse">
<stop stop-color="#4A58F9"/>
<stop offset="1" stop-color="#8BEAFE"/>
</linearGradient>
<linearGradient id="paint11_linear_293_7295" x1="101.766" y1="104.117" x2="140.431" y2="104.117" gradientUnits="userSpaceOnUse">
<stop stop-color="#4A58F9"/>
<stop offset="1" stop-color="#8BEAFE"/>
</linearGradient>
<linearGradient id="paint12_linear_293_7295" x1="135.865" y1="122.016" x2="153.146" y2="122.016" gradientUnits="userSpaceOnUse">
<stop stop-color="#4A58F9"/>
<stop offset="1" stop-color="#8BEAFE"/>
</linearGradient>
</defs>
</svg>
