<svg width="300" height="300" viewBox="0 0 300 300" fill="none" xmlns="http://www.w3.org/2000/svg">
<path d="M149.43 291.63C227.504 291.63 290.796 255.088 290.796 210.012C290.796 164.936 227.504 128.394 149.43 128.394C71.3557 128.394 8.064 164.936 8.064 210.012C8.064 255.088 71.3557 291.63 149.43 291.63Z" fill="#F0F0F0"/>
<path d="M230.616 238.332C221.346 232.98 221.346 224.304 230.616 218.952C239.886 213.6 254.916 213.6 264.186 218.952C273.456 224.304 273.456 232.98 264.186 238.332C254.916 243.684 239.886 243.684 230.616 238.332Z" fill="#E0E0E0"/>
<path d="M42.072 239.076L17.688 225C16.314 224.208 16.314 222.918 17.688 222.126L159.522 140.238C160.896 139.446 163.128 139.446 164.502 140.238L188.886 154.314C190.26 155.106 190.26 156.396 188.886 157.188L47.052 239.076C45.672 239.868 43.446 239.868 42.072 239.076Z" fill="#E0E0E0"/>
<path d="M129.72 213.984L150.684 201.864C152.844 200.616 153.924 198.984 153.924 197.346C153.924 195.708 153.936 194.43 153.936 194.43L132.186 182.166C131.034 181.5 130.098 179.88 130.098 178.554V152.712L93.486 173.868V199.71C93.486 201.042 94.422 202.656 95.574 203.322L114.078 213.984C118.392 216.48 125.4 216.48 129.72 213.984Z" fill="url(#paint0_linear_293_6551)"/>
<g opacity="0.6">
<path d="M129.72 213.984L150.684 201.864C152.844 200.616 153.924 198.984 153.924 197.346C153.924 195.708 153.936 194.43 153.936 194.43L132.186 182.166C131.034 181.5 130.098 179.88 130.098 178.554V152.712L93.486 173.868V199.71C93.486 201.042 94.422 202.656 95.574 203.322L114.078 213.984C118.392 216.48 125.4 216.48 129.72 213.984Z" fill="black"/>
</g>
<path opacity="0.3" d="M102.27 204.288V207.192L95.562 203.322C94.416 202.662 93.48 201.042 93.48 199.71V173.868L100.458 169.842C100.602 171.612 100.758 173.442 100.902 175.23L96.012 178.062V198.252C96.012 199.59 96.942 201.204 98.094 201.864L102.27 204.288Z" fill="black"/>
<path d="M96.006 198.258C96.006 199.59 96.942 201.204 98.094 201.87L114.066 211.068C118.386 213.564 125.394 213.564 129.72 211.068L150.69 198.948C155.01 196.452 155.01 192.408 150.69 189.912L134.706 180.702C133.554 180.036 132.618 178.416 132.618 177.09V156.894L96.006 178.05V198.258Z" fill="url(#paint1_linear_293_6551)"/>
<path opacity="0.3" d="M96.006 198.258C96.006 199.59 96.942 201.204 98.094 201.87L114.066 211.068C118.386 213.564 125.394 213.564 129.72 211.068L150.69 198.948C155.01 196.452 155.01 192.408 150.69 189.912L134.706 180.702C133.554 180.036 132.618 178.416 132.618 177.09V156.894L96.006 178.05V198.258Z" fill="black"/>
<path opacity="0.5" d="M138.96 183.168L134.712 180.714C133.56 180.048 132.624 178.428 132.624 177.102V156.906L96.012 178.062V198.258C96.012 199.59 96.948 201.204 98.1 201.87L102.276 204.282L138.96 183.168Z" fill="black"/>
<path d="M153.93 194.436C153.93 194.436 153.93 195.714 153.93 197.352C153.93 198.99 152.844 200.616 150.69 201.87L129.726 213.984C127.656 215.19 124.968 215.79 122.256 215.838V212.934C124.968 212.898 127.656 212.274 129.726 211.08L150.69 198.954C152.844 197.712 153.93 196.074 153.93 194.436Z" fill="url(#paint2_linear_293_6551)"/>
<path opacity="0.5" d="M153.93 194.436C153.93 194.436 153.93 195.714 153.93 197.352C153.93 198.99 152.844 200.616 150.69 201.87L129.726 213.984C127.656 215.19 124.968 215.79 122.256 215.838V212.934C124.968 212.898 127.656 212.274 129.726 211.08L150.69 198.954C152.844 197.712 153.93 196.074 153.93 194.436Z" fill="black"/>
<path d="M37.218 223.356C38.568 224.136 40.83 224.094 42.276 223.26C60.276 212.868 165.876 151.902 183.876 141.51C185.316 140.676 186.486 138.654 186.486 136.992V22.4461C186.486 20.7841 185.388 18.8041 184.038 18.0241C182.688 17.2441 180.426 17.2861 178.98 18.1201L37.38 99.8701C35.94 100.704 34.77 102.726 34.77 104.388V218.934C34.77 220.596 35.868 222.576 37.218 223.356Z" fill="url(#paint3_linear_293_6551)"/>
<path d="M42.276 223.26L183.876 141.51C185.316 140.676 186.486 138.654 186.486 136.992V22.4461C186.486 20.7841 185.316 20.1061 183.876 20.9401L42.276 102.69C40.836 103.524 39.666 105.546 39.666 107.208V221.754C39.666 223.416 40.836 224.094 42.276 223.26Z" fill="url(#paint4_linear_293_6551)"/>
<path opacity="0.5" d="M42.276 223.26L183.876 141.51C185.316 140.676 186.486 138.654 186.486 136.992V22.4461C186.486 20.7841 185.316 20.1061 183.876 20.9401L42.276 102.69C40.836 103.524 39.666 105.546 39.666 107.208V221.754C39.666 223.416 40.836 224.094 42.276 223.26Z" fill="black"/>
<path d="M41.892 226.236C40.446 226.872 38.448 226.848 37.218 226.14C35.868 225.354 34.77 223.38 34.77 221.706V211.278L39.66 214.11V224.538C39.66 226.056 40.626 226.746 41.892 226.236Z" fill="url(#paint5_linear_293_6551)"/>
<path opacity="0.5" d="M41.892 226.236C40.446 226.872 38.448 226.848 37.218 226.14C35.868 225.354 34.77 223.38 34.77 221.706V211.278L39.66 214.11V224.538C39.66 226.056 40.626 226.746 41.892 226.236Z" fill="black"/>
<path d="M39.66 214.11L39.666 224.538C39.666 226.2 40.836 226.878 42.276 226.044L183.876 144.294C185.316 143.46 186.486 141.438 186.486 139.776V129.33L39.66 214.11Z" fill="url(#paint6_linear_293_6551)"/>
<path opacity="0.3" d="M39.666 214.086V224.532C39.666 226.194 40.836 226.872 42.276 226.038L183.876 144.288C185.316 143.454 186.486 141.432 186.486 139.77V129.324L39.666 214.086Z" fill="black"/>
<path d="M44.556 201.024V108.828C44.556 107.832 45.258 106.614 46.122 106.116L180.018 28.818C180.882 28.32 181.584 28.722 181.584 29.724L181.59 121.92C181.59 122.916 180.888 124.134 180.024 124.632L46.122 201.93C45.258 202.428 44.556 202.02 44.556 201.024Z" fill="url(#paint7_linear_293_6551)"/>
<path d="M44.556 201.024V108.828C44.556 107.832 45.258 106.614 46.122 106.116L180.018 28.818C180.882 28.32 181.584 28.722 181.584 29.724L181.59 121.92C181.59 122.916 180.888 124.134 180.024 124.632L46.122 201.93C45.258 202.428 44.556 202.02 44.556 201.024Z" fill="#263238"/>
<path d="M113.07 175.038C111.72 175.818 110.622 177.714 110.622 179.28C110.622 180.84 111.72 181.476 113.07 180.69C114.42 179.91 115.518 178.014 115.518 176.448C115.518 174.888 114.42 174.258 113.07 175.038Z" fill="url(#paint8_linear_293_6551)"/>
<path opacity="0.7" d="M40.434 104.628C39.966 105.45 39.678 106.374 39.666 107.208V214.11L34.776 211.278V104.382C34.776 103.548 35.076 102.624 35.544 101.802L40.434 104.628Z" fill="black"/>
<path opacity="0.3" d="M186.456 22.0141C186.27 20.6701 185.184 20.1841 183.87 20.9341L42.276 102.69C41.562 103.104 40.914 103.806 40.434 104.628L35.544 101.802C36.018 100.992 36.666 100.278 37.386 99.8641L178.98 18.1201C180.426 17.2861 182.682 17.2441 184.038 18.0301C185.268 18.7321 186.288 20.4541 186.456 22.0141Z" fill="black"/>
<path d="M194.094 36.114C193.752 35.91 193.29 35.916 192.762 36.222L59.154 113.37C58.146 113.952 57.324 115.368 57.324 116.532V208.164C57.324 208.872 57.63 209.502 58.092 209.754C58.392 209.916 59.958 210.828 60.426 211.08C60.726 211.242 61.092 211.248 61.488 211.02L195.096 133.836C196.104 133.254 196.926 131.838 196.926 130.674V38.598C196.926 37.998 196.71 37.578 196.362 37.398C196.032 37.224 194.43 36.312 194.094 36.114Z" fill="url(#paint9_linear_293_6551)"/>
<path d="M60.888 210.894C60.378 210.894 59.964 210.264 59.964 209.49V117.858C59.964 116.808 60.732 115.476 61.644 114.954L195.252 37.8001C195.492 37.6621 195.72 37.5901 195.918 37.5901C196.362 37.5901 196.632 37.9681 196.632 38.5921V130.668C196.632 131.718 195.864 133.05 194.952 133.572L61.338 210.756C61.182 210.846 61.032 210.894 60.888 210.894Z" fill="#FAFAFA"/>
<path d="M195.918 37.89C196.278 37.89 196.332 38.334 196.332 38.592V130.668C196.332 131.622 195.63 132.834 194.802 133.314L61.188 210.498C61.074 210.564 60.972 210.594 60.882 210.594C60.546 210.594 60.258 210.078 60.258 209.49V117.858C60.258 116.904 60.96 115.692 61.788 115.212L195.402 38.064C195.642 37.92 195.816 37.89 195.918 37.89ZM195.918 37.29C195.672 37.29 195.396 37.368 195.102 37.542L61.488 114.696C60.48 115.278 59.658 116.694 59.658 117.864V209.496C59.658 210.42 60.168 211.2 60.882 211.2C61.074 211.2 61.272 211.146 61.488 211.026L195.096 133.842C196.104 133.26 196.926 131.844 196.926 130.68V38.598C196.926 37.77 196.518 37.29 195.918 37.29Z" fill="#E0E0E0"/>
<path d="M58.092 209.754C58.29 209.862 59.712 210.672 60.336 211.026C59.916 210.726 59.694 210.21 59.664 209.49V123.84L57.324 122.472V208.17C57.324 208.872 57.63 209.508 58.092 209.754Z" fill="#F0F0F0"/>
<path d="M196.926 38.5801C196.92 37.4281 196.104 36.96 195.102 37.536L61.488 114.696C60.48 115.278 59.658 116.694 59.658 117.864V123.84L196.926 44.5801V38.5801Z" fill="url(#paint10_linear_293_6551)"/>
<g opacity="0.4">
<path d="M195.102 37.542L61.488 114.69C60.99 114.984 60.528 115.476 60.198 116.046L57.876 114.702C58.206 114.138 58.656 113.646 59.148 113.37L192.762 36.216C193.284 35.91 193.752 35.904 194.088 36.108C194.418 36.312 195.936 37.17 196.32 37.38C196.002 37.224 195.57 37.272 195.102 37.542Z" fill="white"/>
</g>
<path opacity="0.15" d="M57.324 122.478V116.538C57.324 115.944 57.54 115.29 57.882 114.708L60.21 116.046C59.868 116.622 59.664 117.27 59.664 117.864V123.84L57.324 122.478Z" fill="black"/>
<path d="M168.75 107.652L88.728 153.852C87.99 154.278 87.39 155.316 87.39 156.168V179.112C87.39 179.964 87.99 180.996 88.728 181.422L91.068 182.766C91.806 183.192 93 183.192 93.738 182.766L173.754 136.572C174.492 136.146 175.092 135.108 175.092 134.256L175.104 111.306C175.104 110.454 174.504 109.422 173.766 108.996L171.426 107.652C170.682 107.226 169.488 107.226 168.75 107.652Z" fill="url(#paint11_linear_293_6551)"/>
<path opacity="0.5" d="M175.086 111.09C174.996 110.4 174.432 110.148 173.76 110.532L93.738 156.732C93.366 156.942 93.036 157.314 92.796 157.734L87.786 154.842C88.026 154.428 88.362 154.062 88.722 153.858L168.75 107.658C169.482 107.232 170.682 107.226 171.42 107.652L173.76 108.996C174.438 109.386 175.002 110.292 175.086 111.09Z" fill="white"/>
<path d="M93.51 182.874C92.772 183.186 91.734 183.15 91.068 182.772L88.728 181.428C87.99 181.002 87.39 179.964 87.39 179.112V156.174C87.39 155.742 87.546 155.268 87.786 154.848L92.796 157.74C92.55 158.16 92.4 158.628 92.4 159.054V181.998C92.4 182.76 92.88 183.114 93.51 182.874Z" fill="#263238"/>
<path d="M93.738 156.738L173.76 110.538C174.498 110.112 175.098 110.46 175.092 111.312L175.08 134.262C175.08 135.114 174.48 136.152 173.742 136.578L93.726 182.772C92.988 183.198 92.388 182.85 92.388 181.998V159.054C92.4 158.202 93 157.164 93.738 156.738Z" fill="url(#paint12_linear_293_6551)"/>
<path d="M147.534 119.904L88.722 153.858C88.356 154.068 88.026 154.434 87.786 154.842L92.796 157.734C93.036 157.314 93.372 156.942 93.738 156.732L152.538 122.784L147.534 119.904Z" fill="#455A64"/>
<path d="M152.538 122.79L93.738 156.738C93 157.164 92.4 158.202 92.4 159.054V181.998C92.4 182.85 93 183.192 93.738 182.772L152.538 148.824V122.79Z" fill="#37474F"/>
<path d="M107.298 153.948L137.64 136.428C138.9 135.702 139.92 136.218 139.92 137.58C139.92 138.942 138.9 140.634 137.64 141.36L107.304 158.874C106.044 159.6 105.024 159.084 105.024 157.722C105.018 156.366 106.038 154.674 107.298 153.948Z" fill="url(#paint13_linear_293_6551)"/>
<path d="M113.514 159.744C113.55 159.726 113.58 159.732 113.604 159.762C113.628 159.792 113.64 159.834 113.64 159.9V163.314C113.64 163.656 113.61 163.986 113.556 164.298C113.502 164.61 113.418 164.898 113.304 165.162C113.19 165.426 113.052 165.66 112.884 165.87C112.716 166.074 112.518 166.242 112.296 166.368C112.068 166.5 111.876 166.56 111.708 166.548C111.54 166.536 111.402 166.464 111.288 166.326C111.174 166.194 111.09 166.002 111.036 165.756C110.982 165.51 110.952 165.216 110.952 164.868V161.454C110.952 161.394 110.964 161.334 110.988 161.274C111.012 161.214 111.042 161.178 111.078 161.154L111.456 160.932C111.492 160.914 111.522 160.914 111.546 160.95C111.57 160.98 111.582 161.028 111.582 161.088V164.466C111.582 164.694 111.6 164.88 111.636 165.018C111.672 165.162 111.72 165.264 111.78 165.33C111.84 165.396 111.918 165.426 112.008 165.426C112.098 165.42 112.194 165.39 112.296 165.33C112.398 165.27 112.494 165.192 112.584 165.09C112.674 164.994 112.752 164.874 112.812 164.736C112.872 164.598 112.926 164.436 112.962 164.256C112.998 164.076 113.016 163.872 113.016 163.644V160.272C113.016 160.212 113.028 160.152 113.052 160.092C113.076 160.032 113.106 159.996 113.142 159.972L113.514 159.744Z" fill="#FAFAFA"/>
<path d="M115.866 162.972C115.866 162.912 115.854 162.87 115.83 162.84C115.806 162.816 115.77 162.798 115.716 162.798C115.662 162.798 115.59 162.804 115.5 162.822C115.41 162.84 115.296 162.864 115.152 162.888C115.014 162.912 114.9 162.906 114.81 162.876C114.72 162.846 114.648 162.792 114.594 162.708C114.54 162.63 114.504 162.522 114.48 162.396C114.456 162.27 114.45 162.12 114.45 161.952C114.45 161.784 114.474 161.61 114.516 161.424C114.558 161.238 114.624 161.058 114.708 160.884C114.792 160.71 114.894 160.554 115.008 160.404C115.128 160.26 115.26 160.14 115.416 160.05C115.566 159.96 115.704 159.912 115.824 159.906C115.944 159.894 116.046 159.918 116.13 159.972C116.214 160.026 116.28 160.098 116.328 160.206C116.376 160.308 116.4 160.428 116.406 160.554C116.412 160.614 116.4 160.674 116.37 160.734C116.34 160.794 116.31 160.836 116.28 160.854L115.92 161.064C115.872 161.094 115.836 161.094 115.812 161.082C115.788 161.064 115.764 161.046 115.734 161.022C115.704 160.998 115.668 160.986 115.62 160.986C115.572 160.98 115.506 161.01 115.41 161.064C115.314 161.118 115.236 161.19 115.164 161.28C115.092 161.37 115.056 161.484 115.056 161.61C115.056 161.67 115.068 161.718 115.08 161.748C115.098 161.778 115.128 161.796 115.176 161.802C115.224 161.808 115.29 161.802 115.38 161.79C115.464 161.778 115.578 161.754 115.716 161.724C115.992 161.67 116.19 161.718 116.304 161.88C116.418 162.042 116.478 162.288 116.478 162.618C116.478 162.786 116.454 162.96 116.406 163.146C116.358 163.332 116.292 163.512 116.202 163.686C116.112 163.86 116.004 164.028 115.872 164.178C115.74 164.328 115.596 164.448 115.434 164.544C115.266 164.64 115.122 164.688 114.996 164.694C114.87 164.7 114.762 164.67 114.678 164.61C114.588 164.55 114.522 164.466 114.474 164.352C114.426 164.238 114.402 164.118 114.396 163.986C114.39 163.926 114.402 163.866 114.432 163.806C114.456 163.746 114.486 163.704 114.522 163.686L114.882 163.476C114.93 163.452 114.966 163.446 114.99 163.476C115.014 163.5 115.038 163.53 115.068 163.566C115.098 163.602 115.14 163.62 115.194 163.626C115.248 163.632 115.326 163.608 115.434 163.548C115.482 163.518 115.53 163.488 115.578 163.446C115.626 163.404 115.674 163.362 115.716 163.314C115.758 163.266 115.794 163.212 115.824 163.152C115.854 163.098 115.866 163.038 115.866 162.972Z" fill="#FAFAFA"/>
<path d="M117.09 161.346C117.09 161.034 117.114 160.728 117.168 160.422C117.222 160.116 117.3 159.834 117.396 159.57C117.498 159.312 117.618 159.078 117.762 158.88C117.906 158.682 118.062 158.532 118.236 158.43C118.41 158.328 118.572 158.292 118.71 158.328C118.854 158.358 118.974 158.442 119.076 158.58C119.178 158.712 119.256 158.892 119.31 159.12C119.364 159.348 119.394 159.6 119.394 159.888V160.26C119.394 160.32 119.382 160.38 119.358 160.44C119.334 160.5 119.304 160.536 119.268 160.56L117.702 161.466C117.702 161.592 117.72 161.7 117.75 161.778C117.78 161.856 117.822 161.916 117.87 161.958C117.918 161.994 117.978 162.012 118.044 162.006C118.11 162 118.176 161.976 118.248 161.94C118.35 161.88 118.428 161.82 118.494 161.748C118.554 161.676 118.608 161.604 118.65 161.52C118.686 161.454 118.71 161.412 118.734 161.382C118.758 161.352 118.788 161.328 118.824 161.304L119.202 161.088C119.238 161.07 119.268 161.07 119.292 161.1C119.316 161.13 119.328 161.178 119.328 161.238C119.322 161.316 119.298 161.43 119.256 161.58C119.208 161.73 119.142 161.886 119.052 162.054C118.962 162.222 118.848 162.39 118.716 162.546C118.584 162.708 118.428 162.834 118.254 162.936C118.08 163.038 117.918 163.074 117.78 163.05C117.636 163.026 117.516 162.942 117.414 162.798C117.312 162.654 117.24 162.462 117.186 162.216C117.114 161.964 117.09 161.676 117.09 161.346ZM118.242 159.432C118.152 159.486 118.074 159.552 118.008 159.636C117.942 159.72 117.888 159.81 117.846 159.912C117.804 160.014 117.768 160.116 117.744 160.218C117.72 160.326 117.708 160.422 117.696 160.506L118.758 159.894C118.752 159.816 118.74 159.732 118.722 159.654C118.704 159.57 118.674 159.504 118.638 159.45C118.596 159.396 118.548 159.366 118.482 159.354C118.422 159.348 118.338 159.372 118.242 159.432Z" fill="#FAFAFA"/>
<path d="M121.278 157.758C121.092 157.866 120.954 158.016 120.87 158.214C120.786 158.412 120.744 158.676 120.744 159.006V161.172C120.744 161.232 120.732 161.292 120.708 161.352C120.684 161.412 120.654 161.448 120.618 161.472L120.264 161.676C120.228 161.694 120.198 161.688 120.174 161.658C120.15 161.628 120.138 161.58 120.138 161.52V157.638C120.138 157.578 120.15 157.518 120.174 157.458C120.198 157.398 120.228 157.362 120.264 157.338L120.618 157.134C120.654 157.116 120.684 157.116 120.708 157.152C120.732 157.182 120.744 157.23 120.744 157.29V157.482C120.828 157.302 120.912 157.146 121.002 157.026C121.092 156.9 121.212 156.792 121.368 156.708L121.578 156.588C121.614 156.57 121.644 156.576 121.668 156.606C121.692 156.636 121.704 156.684 121.704 156.744V157.296C121.704 157.356 121.692 157.416 121.668 157.476C121.644 157.536 121.614 157.572 121.578 157.596L121.278 157.758Z" fill="#FAFAFA"/>
<path d="M125.754 157.47C125.79 157.452 125.82 157.458 125.844 157.488C125.868 157.518 125.88 157.566 125.88 157.626V158.22C125.88 158.28 125.868 158.34 125.844 158.4C125.82 158.46 125.79 158.496 125.754 158.52L123.702 159.708C123.666 159.726 123.636 159.72 123.612 159.69C123.588 159.66 123.576 159.612 123.576 159.552V154.17C123.576 154.11 123.588 154.05 123.612 153.99C123.636 153.93 123.666 153.894 123.702 153.87L124.08 153.648C124.116 153.63 124.146 153.636 124.17 153.666C124.194 153.696 124.206 153.738 124.206 153.804V158.37L125.754 157.47Z" fill="#FAFAFA"/>
<path d="M127.596 153.03C127.77 152.928 127.926 152.886 128.064 152.904C128.202 152.916 128.322 152.976 128.424 153.09C128.526 153.198 128.61 153.342 128.67 153.534C128.73 153.72 128.766 153.942 128.778 154.188C128.784 154.236 128.784 154.296 128.784 154.38C128.784 154.458 128.784 154.536 128.784 154.614C128.784 154.692 128.784 154.77 128.784 154.842C128.784 154.914 128.784 154.98 128.778 155.034C128.766 155.298 128.73 155.556 128.67 155.814C128.61 156.072 128.532 156.312 128.43 156.534C128.328 156.756 128.208 156.954 128.07 157.128C127.932 157.302 127.776 157.44 127.602 157.536C127.428 157.632 127.272 157.68 127.134 157.662C126.996 157.65 126.876 157.59 126.774 157.482C126.672 157.38 126.594 157.23 126.534 157.044C126.474 156.858 126.438 156.636 126.426 156.39C126.426 156.342 126.42 156.282 126.42 156.204C126.42 156.132 126.42 156.054 126.42 155.976C126.42 155.898 126.42 155.82 126.42 155.742C126.42 155.664 126.426 155.598 126.426 155.544C126.438 155.28 126.474 155.022 126.534 154.764C126.594 154.506 126.678 154.266 126.78 154.038C126.882 153.81 127.002 153.612 127.14 153.438C127.266 153.264 127.422 153.132 127.596 153.03ZM128.16 154.578C128.148 154.41 128.13 154.284 128.094 154.188C128.058 154.098 128.016 154.032 127.962 153.996C127.908 153.96 127.854 153.948 127.788 153.96C127.728 153.972 127.662 153.996 127.596 154.032C127.53 154.068 127.47 154.122 127.404 154.182C127.344 154.242 127.284 154.32 127.23 154.422C127.176 154.518 127.134 154.638 127.098 154.77C127.062 154.902 127.038 155.058 127.032 155.238C127.026 155.286 127.026 155.34 127.026 155.412C127.026 155.478 127.02 155.55 127.02 155.622C127.02 155.694 127.02 155.766 127.026 155.832C127.026 155.898 127.032 155.952 127.032 155.994C127.044 156.162 127.062 156.288 127.098 156.384C127.134 156.48 127.176 156.54 127.23 156.576C127.284 156.612 127.338 156.624 127.404 156.612C127.464 156.6 127.53 156.576 127.596 156.54C127.662 156.504 127.728 156.456 127.788 156.39C127.848 156.33 127.908 156.252 127.962 156.15C128.016 156.054 128.058 155.934 128.094 155.802C128.13 155.67 128.154 155.514 128.16 155.334C128.16 155.292 128.166 155.238 128.166 155.166C128.166 155.094 128.166 155.028 128.166 154.95C128.166 154.878 128.166 154.812 128.166 154.74C128.166 154.674 128.166 154.62 128.16 154.578Z" fill="#FAFAFA"/>
<path d="M130.608 156.54C130.674 156.504 130.74 156.444 130.812 156.372C130.878 156.294 130.944 156.204 130.998 156.096C131.052 155.988 131.1 155.862 131.136 155.718C131.172 155.58 131.19 155.43 131.19 155.268V154.962C131.166 155.028 131.13 155.1 131.094 155.184C131.052 155.268 131.004 155.352 130.944 155.43C130.884 155.514 130.818 155.592 130.74 155.67C130.662 155.748 130.578 155.814 130.482 155.868C130.326 155.958 130.182 155.988 130.056 155.952C129.93 155.916 129.822 155.832 129.732 155.706C129.642 155.58 129.57 155.412 129.522 155.202C129.468 154.998 129.444 154.764 129.432 154.512C129.426 154.428 129.426 154.332 129.426 154.224C129.426 154.116 129.426 154.014 129.432 153.93C129.438 153.672 129.468 153.408 129.522 153.144C129.576 152.88 129.642 152.628 129.732 152.4C129.822 152.166 129.93 151.962 130.056 151.782C130.182 151.602 130.326 151.464 130.482 151.374C130.578 151.32 130.668 151.284 130.74 151.272C130.818 151.26 130.884 151.266 130.944 151.278C131.004 151.296 131.052 151.32 131.094 151.356C131.136 151.392 131.166 151.428 131.19 151.464V151.272C131.19 151.212 131.202 151.152 131.226 151.092C131.25 151.032 131.28 150.996 131.316 150.972L131.67 150.768C131.706 150.75 131.736 150.756 131.76 150.786C131.784 150.816 131.796 150.864 131.796 150.924V154.83C131.796 155.502 131.688 156.072 131.478 156.534C131.268 156.996 130.974 157.338 130.602 157.548C130.446 157.638 130.296 157.686 130.158 157.692C130.02 157.698 129.906 157.662 129.804 157.596C129.702 157.53 129.624 157.434 129.564 157.308C129.504 157.182 129.474 157.038 129.468 156.876C129.462 156.816 129.474 156.756 129.504 156.696C129.528 156.636 129.558 156.594 129.594 156.576L129.912 156.39C129.954 156.366 129.99 156.372 130.026 156.402C130.056 156.438 130.086 156.468 130.104 156.504C130.146 156.576 130.2 156.618 130.272 156.642C130.35 156.66 130.458 156.624 130.608 156.54ZM130.044 153.63C130.032 153.792 130.032 153.948 130.044 154.098C130.062 154.446 130.128 154.674 130.23 154.77C130.338 154.866 130.464 154.872 130.62 154.782C130.776 154.692 130.902 154.536 131.004 154.314C131.106 154.092 131.172 153.828 131.184 153.516C131.19 153.432 131.196 153.324 131.196 153.192C131.196 153.066 131.19 152.958 131.184 152.88C131.166 152.598 131.106 152.406 131.004 152.298C130.902 152.19 130.77 152.184 130.62 152.274C130.47 152.364 130.338 152.514 130.23 152.736C130.128 152.964 130.062 153.258 130.044 153.63Z" fill="#FAFAFA"/>
<path d="M133.188 148.302C133.224 148.284 133.254 148.284 133.278 148.314C133.302 148.344 133.314 148.392 133.314 148.452V149.1C133.314 149.16 133.302 149.22 133.278 149.28C133.254 149.34 133.224 149.376 133.188 149.4L132.786 149.634C132.75 149.652 132.72 149.646 132.696 149.616C132.672 149.586 132.66 149.538 132.66 149.478V148.83C132.66 148.77 132.672 148.71 132.696 148.65C132.72 148.59 132.75 148.554 132.786 148.53L133.188 148.302ZM133.29 153.936C133.29 153.996 133.278 154.056 133.254 154.116C133.23 154.176 133.2 154.212 133.164 154.236L132.81 154.44C132.774 154.458 132.744 154.452 132.72 154.422C132.696 154.392 132.684 154.35 132.684 154.284V150.402C132.684 150.342 132.696 150.282 132.72 150.222C132.744 150.162 132.774 150.126 132.81 150.102L133.164 149.898C133.2 149.88 133.23 149.886 133.254 149.916C133.278 149.946 133.29 149.988 133.29 150.054V153.936Z" fill="#FAFAFA"/>
<path d="M136.458 152.106C136.458 152.166 136.446 152.226 136.422 152.286C136.398 152.346 136.368 152.382 136.332 152.406L135.978 152.61C135.942 152.628 135.912 152.622 135.888 152.592C135.864 152.562 135.852 152.514 135.852 152.454V150.336C135.852 150 135.81 149.76 135.72 149.61C135.63 149.46 135.498 149.436 135.318 149.544C135.15 149.64 135.024 149.814 134.928 150.072C134.832 150.324 134.784 150.624 134.784 150.954V153.072C134.784 153.132 134.772 153.192 134.748 153.252C134.724 153.312 134.694 153.348 134.658 153.372L134.304 153.576C134.268 153.594 134.238 153.588 134.214 153.558C134.19 153.528 134.178 153.48 134.178 153.42V149.538C134.178 149.478 134.19 149.418 134.214 149.358C134.238 149.298 134.268 149.262 134.304 149.238L134.658 149.034C134.694 149.016 134.724 149.016 134.748 149.052C134.772 149.082 134.784 149.13 134.784 149.19V149.382C134.868 149.19 134.958 149.016 135.072 148.86C135.18 148.704 135.312 148.578 135.462 148.494C135.654 148.386 135.81 148.344 135.942 148.374C136.068 148.404 136.176 148.488 136.248 148.62C136.326 148.752 136.38 148.926 136.416 149.142C136.446 149.358 136.464 149.598 136.464 149.862V152.106H136.458Z" fill="#FAFAFA"/>
<path d="M166.722 134.64L160.896 138.006L161.802 129.834C161.106 129.468 160.662 128.556 160.662 127.254C160.662 124.932 162.072 122.238 163.812 121.23C165.552 120.228 166.962 121.29 166.962 123.612C166.962 124.914 166.518 126.336 165.822 127.506L166.722 134.64Z" fill="#455A64"/>
<path d="M166.722 134.64L161.598 131.682L160.896 138.006L166.722 134.64Z" fill="#37474F"/>
<path d="M163.812 121.23C162.672 121.89 161.676 123.27 161.124 124.8L165.822 127.512C166.518 126.336 166.962 124.92 166.962 123.618C166.962 121.29 165.552 120.228 163.812 121.23Z" fill="#37474F"/>
<path d="M135.48 94.02C133.488 92.868 130.734 93.03 127.686 94.788C121.602 98.298 116.67 106.842 116.67 113.868C116.67 117.39 117.912 119.862 119.922 121.008C120.444 121.308 123.276 122.952 123.804 123.258C125.796 124.41 128.55 124.248 131.592 122.49C137.676 118.98 142.608 110.436 142.608 103.41C142.608 99.9001 141.378 97.4341 139.386 96.2821" fill="url(#paint14_linear_293_6551)"/>
<path d="M131.592 97.0501C125.508 100.566 120.576 109.104 120.576 116.13C120.576 123.156 125.508 126 131.592 122.49C137.676 118.98 142.614 110.436 142.608 103.41C142.602 96.3901 137.67 93.5401 131.592 97.0501Z" fill="url(#paint15_linear_293_6551)"/>
<path d="M137.67 112.638V113.442C136.104 116.118 133.956 118.452 131.586 119.814C129.216 121.182 127.074 121.332 125.502 120.456V118.794C125.502 115.584 127.68 111.816 130.458 110.208L132.06 109.29C133.482 108.468 134.856 108.366 135.936 108.99C137.046 109.626 137.67 110.952 137.67 112.638Z" fill="url(#paint16_linear_293_6551)"/>
<path opacity="0.4" d="M135.48 94.0201L139.386 96.2821C137.394 95.1301 134.64 95.2921 131.598 97.0501C127.614 99.3541 124.128 103.812 122.19 108.588L118.284 106.326C120.216 101.55 123.708 97.0921 127.692 94.7941C130.734 93.0361 133.488 92.8681 135.48 94.0201Z" fill="white"/>
<path opacity="0.2" d="M123.66 123.174C122.97 122.778 120.408 121.284 119.922 121.008C117.918 119.862 116.67 117.39 116.67 113.868L120.576 116.13C120.576 119.556 121.752 121.992 123.66 123.174Z" fill="black"/>
<path opacity="0.1" d="M118.278 106.326L122.184 108.588C121.164 111.108 120.576 113.712 120.576 116.13L116.67 113.868C116.67 111.444 117.264 108.84 118.278 106.326Z" fill="black"/>
<path d="M130.206 108.912C129.822 108.912 129.468 108.822 129.144 108.636C128.4 108.21 127.992 107.358 127.992 106.248C127.992 104.214 129.372 101.82 131.136 100.8C132.096 100.242 133.032 100.176 133.782 100.602C134.526 101.028 134.934 101.88 134.934 102.99C134.934 105.024 133.554 107.418 131.79 108.438C131.244 108.756 130.704 108.912 130.206 108.912Z" fill="white"/>
<path d="M135.942 108.99C134.862 108.366 133.482 108.468 132.066 109.29L130.464 110.208C127.686 111.816 125.508 115.59 125.508 118.794V120.456C127.074 121.326 129.222 121.176 131.592 119.814C133.956 118.452 136.104 116.118 137.676 113.442V112.638C137.67 110.952 137.046 109.626 135.942 108.99Z" fill="white"/>
<path d="M259.29 212.79C259.29 212.79 260.088 205.782 263.574 200.346C267.06 194.91 271.848 191.514 276.318 191.16C280.788 190.806 284.394 194.916 279.612 197.742C274.83 200.568 266.334 203.448 262.428 214.008L259.29 212.79Z" fill="url(#paint17_linear_293_6551)"/>
<path opacity="0.1" d="M259.29 212.79C259.29 212.79 260.088 205.782 263.574 200.346C267.06 194.91 271.848 191.514 276.318 191.16C280.788 190.806 284.394 194.916 279.612 197.742C274.83 200.568 266.334 203.448 262.428 214.008L259.29 212.79Z" fill="black"/>
<path d="M260.604 210.966C260.586 210.966 260.574 210.96 260.556 210.954C260.436 210.906 260.376 210.768 260.424 210.642C265.14 199.026 274.116 194.178 278.208 193.236C278.334 193.206 278.466 193.284 278.496 193.416C278.526 193.542 278.448 193.674 278.316 193.704C274.308 194.628 265.512 199.392 260.868 210.822C260.826 210.93 260.712 210.99 260.604 210.966Z" fill="white"/>
<path d="M284.472 211.104C284.07 212.016 283.074 212.49 282.144 212.862C281.22 213.234 280.212 213.636 279.714 214.5C278.706 216.24 280.362 218.694 279.276 220.386C278.82 221.1 277.974 221.472 277.146 221.622C276.456 221.754 275.754 221.748 275.052 221.808C274.716 221.802 274.38 221.778 274.056 221.73C273.096 221.592 272.052 221.544 271.176 222.036C269.79 222.816 269.364 224.562 268.524 225.912C267.516 227.526 265.734 228.582 263.862 228.84C263.238 228.924 262.08 229.032 261.45 228.678C261.402 228.648 261.36 228.624 261.318 228.594C261.312 228.594 261.312 228.588 261.306 228.582C261.222 228.486 261.108 228.36 261.06 228.288C261.048 228.276 261.042 228.264 261.036 228.246C260.79 227.34 261.192 226.404 261.21 225.468C261.21 225.408 261.21 225.354 261.21 225.3C261.174 224.214 261.138 223.134 261.114 222.054C261.066 220.062 261.042 218.07 261.054 216.078C261.066 214.782 260.91 213.366 261.462 212.148C262.068 210.81 263.574 210.78 264.144 209.46C264.372 208.938 264.492 208.374 264.714 207.846C265.374 206.292 266.97 205.17 268.662 205.092C271.296 204.96 273.654 207.09 276.288 206.898C276.966 206.844 277.632 206.64 278.304 206.514C280.434 206.112 282.9 206.724 284.1 208.524C284.598 209.286 284.838 210.276 284.472 211.104Z" fill="url(#paint18_linear_293_6551)"/>
<path d="M260.82 224.112C260.814 224.112 260.808 224.112 260.802 224.106C260.682 224.076 260.61 223.95 260.646 223.83C264.282 210.186 278.664 208.212 282.024 208.452C282.144 208.464 282.24 208.566 282.234 208.692C282.228 208.818 282.12 208.908 281.994 208.902C278.706 208.662 264.642 210.594 261.078 223.944C261.048 224.064 260.934 224.13 260.82 224.112Z" fill="white"/>
<path d="M276.798 217.194C276.756 217.188 276.714 217.164 276.678 217.134C276.642 217.098 272.976 213.48 266.892 214.38C266.772 214.398 266.658 214.314 266.634 214.188C266.616 214.068 266.7 213.948 266.826 213.93C273.144 213 276.96 216.774 276.996 216.816C277.086 216.906 277.08 217.044 276.996 217.134C276.942 217.188 276.87 217.212 276.798 217.194Z" fill="white"/>
<path d="M226.272 48.0059L228.18 48.7379V44.5319C228.18 41.1959 230.838 40.3979 233.73 42.0659C236.616 43.7339 238.956 47.7899 238.956 51.1199V51.7319C239.61 51.4679 240.456 51.5699 241.38 52.1039C243.456 53.3039 245.142 56.2199 245.142 58.6199V58.8959L247.806 60.4319C249.174 61.2239 250.284 63.1439 250.284 64.7219C250.284 66.2999 249.174 66.9419 247.806 66.1499L226.266 53.7119C224.898 52.9199 223.788 50.9999 223.788 49.4219C223.794 47.8559 224.898 47.2139 226.272 48.0059Z" fill="#E6E6E6"/>
<path d="M251.826 44.676L255.288 46.674C255.27 46.518 255.258 46.368 255.258 46.218V45.216C255.258 43.434 256.512 42.708 258.054 43.602C258.678 43.962 259.254 44.538 259.722 45.204C259.974 42.96 261.738 42.126 263.874 43.356C266.184 44.688 268.062 47.94 268.062 50.61V52.11C268.062 52.8 267.936 53.382 267.708 53.85L270.582 55.512C271.44 56.01 272.136 57.21 272.136 58.2C272.136 59.19 271.44 59.592 270.582 59.094L251.826 48.264C250.968 47.772 250.272 46.566 250.272 45.576C250.272 44.586 250.968 44.184 251.826 44.676Z" fill="#E6E6E6"/>
<path d="M238.422 135.738C235.902 139.998 233.478 143.7 231.774 145.476C228.54 146.982 220.944 149.292 217.974 149.676C217.446 149.742 216.918 149.61 216.48 149.322C215.31 148.554 214.41 148.434 213.174 148.008C212.208 147.672 211.8 147.216 211.62 147.39C211.386 147.618 211.134 148.254 211.722 148.92C212.016 149.256 212.556 149.616 213.246 150.06C213.246 150.06 211.122 150.624 209.226 150.126C206.652 149.448 205.44 150.69 207.18 153.48C207.804 154.482 210.258 156.084 215.226 155.652C216.66 155.526 218.724 155.406 220.506 155.028C225.276 154.008 230.574 153.024 233.832 152.052C234.654 151.806 236.124 150.858 236.994 149.856C242.472 143.61 244.29 139.158 246.69 135.114L246.48 128.502C242.604 128.388 240.528 132.174 238.422 135.738Z" fill="#FFA8A7"/>
<path d="M247.158 128.388C247.158 128.388 243.768 127.668 241.218 130.926C238.548 134.34 233.832 142.536 233.832 142.536C233.832 142.536 235.38 146.646 239.544 147.324L246.234 138.288C246.234 138.288 249.402 132.036 247.158 128.388Z" fill="#455A64"/>
<path d="M261.624 220.524H257.262V228.3H261.624V220.524Z" fill="#FFA8A7"/>
<path d="M246.504 220.104L242.148 220.26L241.926 212.034L246.504 211.878V220.104Z" fill="#FFA8A7"/>
<path d="M262.236 153.21C262.236 157.548 261.6 192.45 261.6 192.45C261.702 193.698 262.824 195.996 262.584 200.79C262.254 207.3 261.816 224.412 261.816 224.412C261.816 224.412 259.698 225.702 256.962 224.514C256.962 224.514 253.428 200.538 252.648 194.088C251.964 188.454 250.218 169.776 250.218 169.776L247.854 191.82C247.854 191.82 248.658 195.18 248.394 199.038C248.19 202.02 246.786 217.566 246.786 217.566C246.786 217.566 244.734 219.018 241.752 217.968C241.752 217.968 239.274 194.562 239.22 191.82C239.16 188.7 240.672 153.168 240.672 153.168L262.236 153.21Z" fill="#37474F"/>
<path d="M257.262 226.056V225.408C256.842 225.6 255.876 229.452 254.148 231.09C252.774 232.398 250.896 233.904 250.422 235.362C249.924 236.88 253.032 237.714 254.322 237.474C255.816 237.198 258.402 236.106 259.05 235.086C259.698 234.072 260.004 232.572 260.532 231.828C261.06 231.084 262.278 230.256 262.56 229.392C262.716 228.918 262.53 227.886 262.308 227.01C262.104 226.206 261.888 225.324 261.624 225.402C261.624 225.498 261.624 225.9 261.624 225.9C261.306 226.266 260.43 226.626 259.446 226.668C258.804 226.692 257.256 226.56 257.262 226.056Z" fill="#263238"/>
<path d="M242.1 218.862C241.872 218.868 241.692 219.204 241.188 219.768C240.582 220.446 239.598 221.184 238.62 221.688C236.988 222.54 233.814 223.848 232.374 224.52C231.474 224.94 231.516 226.068 232.446 226.71C233.376 227.352 235.614 227.814 238.302 227.19C239.766 226.848 241.674 225.438 242.88 225.516C244.086 225.594 246.348 225.576 247.236 224.934C248.13 224.292 247.77 222.93 247.518 221.754C247.242 220.47 246.9 218.472 246.492 218.562V219.006C245.97 219.834 243.264 220.17 242.112 219.558L242.1 218.862Z" fill="#263238"/>
<path d="M250.206 169.77C250.206 169.77 246.72 168.75 244.134 166.146C244.134 166.146 245.304 168.432 248.79 170.556L248.046 190.242L250.206 169.77Z" fill="#263238"/>
<path d="M259.794 129.036C259.794 129.036 263.382 129.864 263.136 136.368L262.38 146.724L262.398 162.264C259.194 165.9 244.974 165.63 240.108 161.976C240.108 161.976 240.66 143.586 240.99 136.512C241.224 131.484 242.382 128.946 247.326 128.394L253.404 128.664L259.794 129.036Z" fill="url(#paint19_linear_293_6551)"/>
<path d="M255.216 115.524C255.216 119.256 252.312 122.286 248.724 122.286C245.136 122.286 243.018 119.178 242.232 115.524C240.798 108.846 245.136 108.762 248.724 108.762C252.306 108.762 255.216 111.786 255.216 115.524Z" fill="#263238"/>
<path d="M258.528 118.254C258.528 118.254 257.532 123.126 257.136 123.924C256.734 124.722 255.912 124.95 255.912 124.95L255.984 121.524L258.528 118.254Z" fill="#263238"/>
<path d="M257.274 111.276C257.274 111.276 257.988 111.096 258.744 112.284C259.392 113.298 259.542 115.584 258.522 118.26L256.644 118.482L257.274 111.276Z" fill="#263238"/>
<path d="M257.964 112.266L260.262 112.308C260.316 111.648 259.848 111.102 259.212 111.09C258.582 111.078 258.024 111.606 257.964 112.266Z" fill="#263238"/>
<path d="M258.246 111.72L259.95 110.082C259.53 109.596 258.81 109.566 258.336 110.016C257.868 110.466 257.826 111.228 258.246 111.72Z" fill="#263238"/>
<path d="M256.086 118.482C256.464 118.716 256.998 117.966 257.46 117.456C257.922 116.952 259.38 116.472 260.136 118.128C260.904 119.82 259.602 121.422 258.522 121.962C256.584 122.922 255.972 121.524 255.972 121.524L255.816 129.24C253.086 133.458 246.912 133.308 249.132 129.036L249.138 126.69C249.138 126.69 247.278 126.984 246.366 126.84C244.854 126.594 243.906 125.358 243.444 123.654C242.706 120.918 242.43 118.71 243.054 113.328C243.738 107.43 250.326 107.37 253.878 109.704C257.442 112.032 256.086 118.482 256.086 118.482Z" fill="#FFA8A7"/>
<path d="M247.878 112.41C249.45 112.254 251.004 111.93 252.582 111.816C252.924 111.792 253.272 111.774 253.602 111.864C254.808 112.188 254.652 113.592 254.844 114.576C255.174 116.268 255.45 119.13 256.086 119.142C256.278 119.148 256.992 117.9 257.46 117.462C257.766 117.174 257.814 116.556 257.88 116.172C258 115.47 258.066 114.762 258.12 114.054C258.168 113.454 258.228 112.848 258.222 112.242C258.222 111.57 258.234 110.88 258.066 110.22C257.916 109.62 257.634 109.176 257.226 108.708C257.184 108.666 257.148 108.618 257.106 108.576C256.332 107.742 255.342 107.112 254.292 106.68C252.786 106.056 251.148 105.81 249.528 105.642C247.908 105.474 246.27 105.384 244.674 105.06C244.578 105.042 244.482 105.024 244.392 105.054C244.254 105.108 244.194 105.27 244.164 105.414C244.02 106.152 244.356 106.962 244.98 107.388C243.894 107.472 242.646 106.908 241.596 106.626C241.422 106.578 241.218 106.536 241.062 106.626C240.954 106.692 240.888 106.812 240.852 106.932C240.762 107.208 240.78 107.514 240.822 107.802C240.936 108.66 241.23 109.506 241.758 110.19C242.52 111.174 243.768 112.062 244.998 112.308C245.976 112.506 246.882 112.506 247.878 112.41Z" fill="#263238"/>
<path d="M249.144 126.696C249.144 126.696 252.516 125.988 253.698 125.334C254.49 124.896 255.138 124.14 255.33 123.654C255.33 123.654 255.108 124.698 254.406 125.634C253.542 126.78 249.15 127.626 249.15 127.626L249.144 126.696Z" fill="#F28F8F"/>
<path d="M249.954 117.606C249.954 118.008 250.254 118.338 250.632 118.338C251.004 118.338 251.31 118.008 251.31 117.606C251.31 117.204 251.01 116.874 250.632 116.874C250.254 116.874 249.954 117.198 249.954 117.606Z" fill="#263238"/>
<path d="M251.034 114.69L252.48 115.518C252.696 115.086 252.54 114.546 252.144 114.318C251.748 114.09 251.25 114.258 251.034 114.69Z" fill="#263238"/>
<path d="M249.444 122.466L247.902 123.066C248.052 123.528 248.526 123.762 248.952 123.6C249.378 123.438 249.6 122.928 249.444 122.466Z" fill="#F28F8F"/>
<path d="M243.75 115.308L245.07 114.252C244.8 113.856 244.29 113.778 243.924 114.066C243.558 114.36 243.486 114.918 243.75 115.308Z" fill="#263238"/>
<path d="M244.332 117.402C244.332 117.804 244.632 118.134 245.01 118.134C245.382 118.134 245.688 117.804 245.688 117.402C245.688 117 245.388 116.67 245.01 116.67C244.632 116.67 244.332 117 244.332 117.402Z" fill="#263238"/>
<path d="M247.95 116.838L247.872 121.104L245.448 120.552L247.95 116.838Z" fill="#F28F8F"/>
<path d="M190.386 152.568L194.148 150.396L195.636 148.59L191.88 150.762L190.386 152.568Z" fill="url(#paint20_linear_293_6551)"/>
<path opacity="0.4" d="M190.386 152.568L194.148 150.396L195.636 148.59L191.88 150.762L190.386 152.568Z" fill="black"/>
<path d="M200.616 158.472L204.378 156.3L207.516 153.522L203.76 155.688L200.616 158.472Z" fill="url(#paint21_linear_293_6551)"/>
<path opacity="0.4" d="M200.616 158.472L204.378 156.3L207.516 153.522L203.76 155.688L200.616 158.472Z" fill="black"/>
<path d="M232.572 165.966C233.394 167.016 233.994 168.552 234.126 170.058C233.304 169.008 232.704 167.472 232.572 165.966ZM241.314 166.08C240.048 157.47 235.422 148.95 229.908 145.77C227.262 144.24 224.814 144.186 222.852 145.332C222.276 145.668 220.152 146.892 219.312 147.372C219.246 147.408 219.174 147.444 219.114 147.492C218.958 147.576 218.808 147.678 218.658 147.78C218.376 147.978 218.1 148.2 217.842 148.452C217.806 148.482 217.77 148.524 217.722 148.56C217.608 148.674 217.5 148.794 217.398 148.92C217.266 149.07 217.14 149.22 217.02 149.382C216.774 149.706 216.54 150.06 216.33 150.444C216.228 150.63 216.12 150.828 216.024 151.032L185.112 133.188L181.356 135.354V137.748L181.674 137.934L181.968 138.108V138.612L181.35 138.972V140.364L185.892 149.976L190.38 152.574L191.874 150.768L195.834 153.138L198.108 157.038L200.61 158.484L203.748 155.7L207.606 157.926L208.902 163.266L215.358 166.992C215.682 168.36 216.096 169.698 216.582 171.006C216.624 171.144 216.672 171.276 216.732 171.426C218.88 177.072 222.294 181.902 226.146 184.128C226.638 184.41 227.118 184.644 227.598 184.824C227.868 184.938 228.138 185.022 228.408 185.094C228.648 185.16 228.888 185.22 229.128 185.256C229.926 185.4 230.694 185.394 231.414 185.25C231.516 185.226 231.624 185.202 231.726 185.178C231.876 185.148 232.02 185.106 232.164 185.046C232.272 185.004 232.386 184.962 232.5 184.914C232.62 184.872 232.734 184.818 232.848 184.752C232.956 184.704 233.064 184.65 233.166 184.584C233.22 184.554 233.274 184.524 233.328 184.494C233.352 184.488 233.376 184.47 233.4 184.452C234.258 183.96 236.376 182.736 236.946 182.412C239.802 180.756 241.65 176.568 241.65 170.652C241.656 169.134 241.542 167.604 241.314 166.08Z" fill="url(#paint22_linear_293_6551)"/>
<path d="M231.474 173.232C229.992 172.374 228.786 169.83 228.786 167.55C228.786 165.27 229.986 164.112 231.474 164.964C232.956 165.822 234.156 168.366 234.156 170.646C234.156 172.932 232.956 174.09 231.474 173.232ZM237.552 168.246C236.286 159.642 231.66 151.122 226.146 147.942C223.59 146.466 221.232 146.358 219.306 147.372C219.24 147.408 219.168 147.444 219.108 147.492C218.952 147.576 218.802 147.678 218.652 147.78C218.37 147.978 218.094 148.2 217.836 148.452C217.8 148.482 217.764 148.524 217.716 148.56C217.602 148.674 217.494 148.794 217.392 148.92C217.26 149.07 217.134 149.22 217.014 149.382C216.768 149.706 216.534 150.06 216.324 150.444C216.222 150.63 216.114 150.828 216.018 151.032C215.508 152.082 215.1 153.3 214.83 154.686L181.356 135.354V137.748L181.674 137.934L181.968 138.108V138.612L181.35 138.972V140.364L185.892 149.976L190.38 152.574L191.874 150.768L195.834 153.138L198.108 157.038L200.61 158.484L203.748 155.7L207.606 157.926L208.902 163.266L215.358 166.992C215.682 168.36 216.096 169.698 216.582 171.006C216.624 171.144 216.672 171.276 216.732 171.426C218.88 177.072 222.294 181.902 226.146 184.128C226.638 184.41 227.118 184.644 227.598 184.824C227.868 184.938 228.138 185.022 228.408 185.094C228.648 185.16 228.888 185.22 229.128 185.256C229.926 185.4 230.694 185.394 231.414 185.25C231.516 185.226 231.624 185.202 231.726 185.178C231.876 185.148 232.02 185.106 232.164 185.046C232.272 185.004 232.386 184.962 232.5 184.914C232.62 184.872 232.734 184.818 232.848 184.752C232.956 184.704 233.064 184.65 233.166 184.584C233.22 184.554 233.274 184.524 233.328 184.494C233.352 184.488 233.376 184.47 233.4 184.452C236.136 182.724 237.894 178.596 237.894 172.818C237.9 171.306 237.774 169.776 237.552 168.246Z" fill="url(#paint23_linear_293_6551)"/>
<path opacity="0.4" d="M234.156 170.646C234.156 172.926 232.956 174.09 231.474 173.232C229.986 172.374 228.786 169.836 228.786 167.55C228.786 165.264 229.986 164.106 231.474 164.964C231.87 165.192 232.248 165.54 232.572 165.972C232.704 167.472 233.304 169.014 234.126 170.064C234.15 170.256 234.156 170.454 234.156 170.646Z" fill="black"/>
<path opacity="0.4" d="M241.656 170.64C241.656 176.562 239.808 180.75 236.952 182.4C236.376 182.724 234.264 183.948 233.406 184.44C236.142 182.712 237.9 178.584 237.9 172.806C237.9 171.3 237.774 169.77 237.552 168.24C236.286 159.636 231.66 151.116 226.146 147.936C223.59 146.46 221.232 146.352 219.306 147.366C220.146 146.886 222.27 145.656 222.846 145.326C224.808 144.18 227.256 144.234 229.902 145.764C235.416 148.944 240.042 157.464 241.308 166.074C241.542 167.604 241.656 169.134 241.656 170.64Z" fill="white"/>
<path d="M237.9 172.812C237.9 178.59 236.142 182.718 233.406 184.446C234.264 183.954 236.382 182.73 236.952 182.406C239.808 180.75 241.656 176.562 241.656 170.646C241.656 170.43 241.65 170.208 241.644 169.986C240.354 170.73 239.046 171.486 237.888 172.152C237.894 172.374 237.9 172.59 237.9 172.812Z" fill="url(#paint24_linear_293_6551)"/>
<path opacity="0.1" d="M237.9 172.812C237.9 178.59 236.142 182.718 233.406 184.446C234.264 183.954 236.382 182.73 236.952 182.406C239.808 180.75 241.656 176.562 241.656 170.646C241.656 170.43 241.65 170.208 241.644 169.986C240.354 170.73 239.046 171.486 237.888 172.152C237.894 172.374 237.9 172.59 237.9 172.812Z" fill="black"/>
<path opacity="0.15" d="M214.968 157.152V158.37L181.356 138.966L181.974 138.612V138.102L214.968 157.152Z" fill="black"/>
<path opacity="0.15" d="M214.968 157.656V158.37L181.356 138.966L181.974 138.612V138.6L214.968 157.656Z" fill="black"/>
<path opacity="0.15" d="M231.024 181.914C235.709 180.476 237.326 172.201 234.634 163.433C231.943 154.664 225.963 148.721 221.278 150.159C216.593 151.597 214.976 159.871 217.667 168.64C220.358 177.409 226.338 183.352 231.024 181.914Z" stroke="black" stroke-miterlimit="10"/>
<path opacity="0.4" d="M216.024 151.032C215.514 152.082 215.106 153.3 214.836 154.686L181.362 135.354L185.118 133.188L216.024 151.032Z" fill="white"/>
<path d="M259.506 152.91C261.264 149.592 263.262 142.14 264.258 138.378C265.674 133.038 263.382 129.678 260.784 129.54C259.152 129.786 253.8 149.274 253.8 149.274C253.206 149.748 245.058 153.876 242.436 154.914C241.974 155.1 241.458 155.088 240.984 154.92C239.724 154.464 238.872 154.548 237.642 154.422C236.676 154.326 236.19 153.984 236.07 154.188C235.914 154.452 235.842 155.118 236.544 155.61C236.898 155.856 237.48 156.078 238.224 156.342C238.224 156.342 236.832 156.822 234.978 156.786C232.464 156.732 231.558 157.824 233.508 160.374C234.732 161.97 236.7 162.474 241.128 160.944C242.406 160.5 244.134 159.642 245.742 159.06C249.072 157.848 249.924 157.722 252.48 156.858C256.158 155.622 258.726 154.386 259.506 152.91Z" fill="#FFA8A7"/>
<path d="M259.794 129.036C261.324 129.246 262.812 129.594 263.7 130.83C264.588 132.066 265.332 133.812 264.444 138.606C263.556 143.4 261.72 148.488 261.72 148.488C261.72 148.488 258.156 150.012 254.37 146.148L256.974 136.08C256.974 136.08 257.418 129.54 259.794 129.036Z" fill="#455A64"/>
<defs>
<linearGradient id="paint0_linear_293_6551" x1="93.486" y1="184.284" x2="153.936" y2="184.284" gradientUnits="userSpaceOnUse">
<stop stop-color="#4A58F9"/>
<stop offset="1" stop-color="#8BEAFE"/>
</linearGradient>
<linearGradient id="paint1_linear_293_6551" x1="96.006" y1="184.917" x2="153.93" y2="184.917" gradientUnits="userSpaceOnUse">
<stop stop-color="#4A58F9"/>
<stop offset="1" stop-color="#8BEAFE"/>
</linearGradient>
<linearGradient id="paint2_linear_293_6551" x1="122.256" y1="205.137" x2="153.93" y2="205.137" gradientUnits="userSpaceOnUse">
<stop stop-color="#4A58F9"/>
<stop offset="1" stop-color="#8BEAFE"/>
</linearGradient>
<linearGradient id="paint3_linear_293_6551" x1="34.77" y1="120.69" x2="186.486" y2="120.69" gradientUnits="userSpaceOnUse">
<stop stop-color="#4A58F9"/>
<stop offset="1" stop-color="#8BEAFE"/>
</linearGradient>
<linearGradient id="paint4_linear_293_6551" x1="39.666" y1="122.1" x2="186.486" y2="122.1" gradientUnits="userSpaceOnUse">
<stop stop-color="#4A58F9"/>
<stop offset="1" stop-color="#8BEAFE"/>
</linearGradient>
<linearGradient id="paint5_linear_293_6551" x1="34.77" y1="218.986" x2="41.892" y2="218.986" gradientUnits="userSpaceOnUse">
<stop stop-color="#4A58F9"/>
<stop offset="1" stop-color="#8BEAFE"/>
</linearGradient>
<linearGradient id="paint6_linear_293_6551" x1="39.66" y1="177.866" x2="186.486" y2="177.866" gradientUnits="userSpaceOnUse">
<stop stop-color="#4A58F9"/>
<stop offset="1" stop-color="#8BEAFE"/>
</linearGradient>
<linearGradient id="paint7_linear_293_6551" x1="44.556" y1="115.373" x2="181.59" y2="115.373" gradientUnits="userSpaceOnUse">
<stop stop-color="#4A58F9"/>
<stop offset="1" stop-color="#8BEAFE"/>
</linearGradient>
<linearGradient id="paint8_linear_293_6551" x1="110.622" y1="177.865" x2="115.518" y2="177.865" gradientUnits="userSpaceOnUse">
<stop stop-color="#4A58F9"/>
<stop offset="1" stop-color="#8BEAFE"/>
</linearGradient>
<linearGradient id="paint9_linear_293_6551" x1="57.324" y1="123.586" x2="196.926" y2="123.586" gradientUnits="userSpaceOnUse">
<stop stop-color="#4A58F9"/>
<stop offset="1" stop-color="#8BEAFE"/>
</linearGradient>
<linearGradient id="paint10_linear_293_6551" x1="59.658" y1="80.5648" x2="196.926" y2="80.5648" gradientUnits="userSpaceOnUse">
<stop stop-color="#4A58F9"/>
<stop offset="1" stop-color="#8BEAFE"/>
</linearGradient>
<linearGradient id="paint11_linear_293_6551" x1="87.39" y1="145.209" x2="175.104" y2="145.209" gradientUnits="userSpaceOnUse">
<stop stop-color="#4A58F9"/>
<stop offset="1" stop-color="#8BEAFE"/>
</linearGradient>
<linearGradient id="paint12_linear_293_6551" x1="92.388" y1="146.655" x2="175.092" y2="146.655" gradientUnits="userSpaceOnUse">
<stop stop-color="#4A58F9"/>
<stop offset="1" stop-color="#8BEAFE"/>
</linearGradient>
<linearGradient id="paint13_linear_293_6551" x1="105.024" y1="147.651" x2="139.92" y2="147.651" gradientUnits="userSpaceOnUse">
<stop stop-color="#4A58F9"/>
<stop offset="1" stop-color="#8BEAFE"/>
</linearGradient>
<linearGradient id="paint14_linear_293_6551" x1="116.67" y1="108.639" x2="142.608" y2="108.639" gradientUnits="userSpaceOnUse">
<stop stop-color="#4A58F9"/>
<stop offset="1" stop-color="#8BEAFE"/>
</linearGradient>
<linearGradient id="paint15_linear_293_6551" x1="120.576" y1="109.771" x2="142.608" y2="109.771" gradientUnits="userSpaceOnUse">
<stop stop-color="#4A58F9"/>
<stop offset="1" stop-color="#8BEAFE"/>
</linearGradient>
<linearGradient id="paint16_linear_293_6551" x1="125.502" y1="114.795" x2="137.67" y2="114.795" gradientUnits="userSpaceOnUse">
<stop stop-color="#4A58F9"/>
<stop offset="1" stop-color="#8BEAFE"/>
</linearGradient>
<linearGradient id="paint17_linear_293_6551" x1="259.29" y1="202.573" x2="281.877" y2="202.573" gradientUnits="userSpaceOnUse">
<stop stop-color="#4A58F9"/>
<stop offset="1" stop-color="#8BEAFE"/>
</linearGradient>
<linearGradient id="paint18_linear_293_6551" x1="260.957" y1="217.005" x2="284.649" y2="217.005" gradientUnits="userSpaceOnUse">
<stop stop-color="#4A58F9"/>
<stop offset="1" stop-color="#8BEAFE"/>
</linearGradient>
<linearGradient id="paint19_linear_293_6551" x1="240.108" y1="146.626" x2="263.148" y2="146.626" gradientUnits="userSpaceOnUse">
<stop stop-color="#4A58F9"/>
<stop offset="1" stop-color="#8BEAFE"/>
</linearGradient>
<linearGradient id="paint20_linear_293_6551" x1="190.386" y1="150.579" x2="195.636" y2="150.579" gradientUnits="userSpaceOnUse">
<stop stop-color="#4A58F9"/>
<stop offset="1" stop-color="#8BEAFE"/>
</linearGradient>
<linearGradient id="paint21_linear_293_6551" x1="200.616" y1="155.997" x2="207.516" y2="155.997" gradientUnits="userSpaceOnUse">
<stop stop-color="#4A58F9"/>
<stop offset="1" stop-color="#8BEAFE"/>
</linearGradient>
<linearGradient id="paint22_linear_293_6551" x1="181.35" y1="159.275" x2="241.65" y2="159.275" gradientUnits="userSpaceOnUse">
<stop stop-color="#4A58F9"/>
<stop offset="1" stop-color="#8BEAFE"/>
</linearGradient>
<linearGradient id="paint23_linear_293_6551" x1="181.35" y1="160.358" x2="237.894" y2="160.358" gradientUnits="userSpaceOnUse">
<stop stop-color="#4A58F9"/>
<stop offset="1" stop-color="#8BEAFE"/>
</linearGradient>
<linearGradient id="paint24_linear_293_6551" x1="233.406" y1="177.216" x2="241.656" y2="177.216" gradientUnits="userSpaceOnUse">
<stop stop-color="#4A58F9"/>
<stop offset="1" stop-color="#8BEAFE"/>
</linearGradient>
</defs>
</svg>
