<svg width="300" height="300" viewBox="0 0 300 300" fill="none" xmlns="http://www.w3.org/2000/svg">
<path d="M300 229.44H0V229.59H300V229.44Z" fill="#EBEBEB"/>
<path d="M269.94 239.094H250.068V239.244H269.94V239.094Z" fill="#EBEBEB"/>
<path d="M242.514 239.094H200.028V239.244H242.514V239.094Z" fill="#EBEBEB"/>
<path d="M176.598 233.526H165.084V233.676H176.598V233.526Z" fill="#EBEBEB"/>
<path d="M52.0496 234.534H31.4756V234.684H52.0496V234.534Z" fill="#EBEBEB"/>
<path d="M94.7996 234.534H57.3896V234.684H94.7996V234.534Z" fill="#EBEBEB"/>
<path d="M135.084 237.066H112.998V237.216H135.084V237.066Z" fill="#EBEBEB"/>
<path d="M142.206 202.68H26.3518C24.4618 202.68 22.9258 201.144 22.9258 199.254V36.396C22.9258 34.506 24.4618 32.97 26.3518 32.97H142.212C144.102 32.97 145.638 34.506 145.638 36.396V199.254C145.632 201.144 144.096 202.68 142.206 202.68ZM26.3518 33.12C24.5458 33.12 23.0758 34.59 23.0758 36.396V199.254C23.0758 201.06 24.5458 202.53 26.3518 202.53H142.212C144.018 202.53 145.488 201.06 145.488 199.254V36.396C145.488 34.59 144.018 33.12 142.212 33.12H26.3518Z" fill="#EBEBEB"/>
<path d="M271.986 202.68H156.126C154.236 202.68 152.7 201.144 152.7 199.254V36.396C152.7 34.506 154.236 32.97 156.126 32.97H271.986C273.876 32.97 275.412 34.506 275.412 36.396V199.254C275.412 201.144 273.876 202.68 271.986 202.68ZM156.126 33.12C154.32 33.12 152.85 34.59 152.85 36.396V199.254C152.85 201.06 154.32 202.53 156.126 202.53H271.986C273.792 202.53 275.262 201.06 275.262 199.254V36.396C275.262 34.59 273.792 33.12 271.986 33.12H156.126Z" fill="#EBEBEB"/>
<path d="M38.5897 138.935L194.056 138.935V44.8673L38.5897 44.8673V138.935Z" fill="#E6E6E6"/>
<path d="M36.1658 138.935L193.006 138.935V44.8673L36.1658 44.8673V138.935Z" fill="#F5F5F5"/>
<path d="M188.647 134.23L188.647 49.5698L40.5195 49.5698L40.5195 134.23L188.647 134.23Z" fill="#FAFAFA"/>
<path d="M176.934 134.232L145.038 49.5719H131.61L163.5 134.232H176.934Z" fill="white"/>
<path d="M159.697 134.232L127.801 49.5719H118.555L150.451 134.232H159.697Z" fill="white"/>
<path d="M103.345 134.232L71.455 49.5719H62.209L94.099 134.232H103.345Z" fill="white"/>
<path d="M77.8184 134.234L77.8184 49.5739H72.6224L72.6224 134.234H77.8184Z" fill="#E6E6E6"/>
<path d="M160.025 134.232L160.025 49.5721H154.829L154.829 134.232H160.025Z" fill="#E6E6E6"/>
<path d="M76.8809 137.214L76.8809 46.0739H70.3169L70.3169 137.214H76.8809Z" fill="#F5F5F5"/>
<path d="M159.089 137.212L159.089 46.0721H152.525L152.525 137.212H159.089Z" fill="#F5F5F5"/>
<path d="M40.9834 134.234L40.9834 49.5742H40.5214L40.5214 134.234H40.9834Z" fill="#E6E6E6"/>
<path d="M34.3564 38.814H198.774C199.092 38.814 199.356 39.078 199.356 39.396V39.432C199.356 39.75 199.092 40.014 198.774 40.014H34.3564C34.0384 40.014 33.7744 39.75 33.7744 39.432V39.396C33.7744 39.078 34.0384 38.814 34.3564 38.814Z" fill="#E6E6E6"/>
<path d="M194.059 41.094C194.473 41.094 194.815 40.752 194.815 40.338V38.496C194.815 38.082 194.473 37.74 194.059 37.74C193.639 37.74 193.303 38.082 193.303 38.496V40.338C193.303 40.752 193.639 41.094 194.059 41.094Z" fill="#E6E6E6"/>
<path d="M42.8048 41.094C43.2188 41.094 43.5608 40.752 43.5608 40.338V38.496C43.5608 38.082 43.2188 37.74 42.8048 37.74C42.3908 37.74 42.0488 38.082 42.0488 38.496V40.338C42.0488 40.752 42.3908 41.094 42.8048 41.094Z" fill="#E6E6E6"/>
<path opacity="0.6" d="M34.5105 106.538L191.272 106.538V39.416L34.5105 39.416V106.538Z" fill="#EBEBEB"/>
<path d="M221.356 104.663H261.04V64.0853H221.356V104.663Z" fill="#E0E0E0"/>
<path d="M218.963 104.663H259.997V64.0853H218.963V104.663Z" fill="#F5F5F5"/>
<path d="M222.399 68.6897V100.058H256.557V68.6897H222.399Z" fill="white"/>
<path d="M249.694 226.07H260.8V156.398H249.694V226.07Z" fill="#F0F0F0"/>
<path d="M136.321 229.436L258.667 229.436V226.07L136.321 226.07V229.436Z" fill="#F0F0F0"/>
<path d="M249.69 156.402H134.19V226.074H249.69V156.402Z" fill="#F5F5F5"/>
<path d="M249.694 156.401H260.8V153.461H249.694V156.401Z" fill="#E6E6E6"/>
<path d="M249.69 153.462H134.19V156.402H249.69V153.462Z" fill="#F0F0F0"/>
<path d="M245.707 180.75H138.187V162.57H245.707V180.75ZM138.931 180H244.957V163.314H138.931V180Z" fill="#E0E0E0"/>
<path d="M245.707 219.9H138.187V185.202H245.707V219.9ZM138.931 219.156H244.957V185.952H138.931V219.156Z" fill="#E0E0E0"/>
<path d="M152.673 165.335H231.219V162.947H152.673V165.335Z" fill="#E0E0E0"/>
<path d="M152.673 187.969H231.219V185.581H152.673V187.969Z" fill="#E0E0E0"/>
<path d="M219.126 152.19H176.442V153.462H219.126V152.19Z" fill="#E0E0E0"/>
<path d="M219.126 152.19H176.442L180.546 127.752H223.23L219.126 152.19Z" fill="#E0E0E0"/>
<path d="M218.334 152.19H175.65L179.754 127.752H222.438L218.334 152.19Z" fill="#EBEBEB"/>
<path d="M177.27 150.27L180.762 129.492C180.804 129.228 181.038 129.036 181.302 129.036H220.278C220.62 129.036 220.878 129.342 220.818 129.678L217.326 150.456C217.284 150.72 217.05 150.912 216.786 150.912H177.81C177.468 150.906 177.21 150.606 177.27 150.27Z" fill="#FAFAFA"/>
<path d="M209.466 152.19H166.782V153.462H209.466V152.19Z" fill="#F0F0F0"/>
<path d="M101.442 145.728H78.6124C73.4643 145.728 68.8203 150.186 67.6083 156.288L63.7923 175.494L55.9443 175.464H55.9203C52.1823 175.464 48.9663 178.662 48.2643 183.09L47.2203 189.666C45.6423 189.942 44.2863 191.394 43.9023 193.314H91.0563C96.1983 193.314 100.836 188.862 102.048 182.76L107.532 155.184C108.516 150.246 105.606 145.728 101.442 145.728ZM55.0923 189.612H49.2903L50.2623 183.552C50.7783 180.294 53.1603 177.924 55.9143 177.924H55.9323L63.2943 177.954L62.3643 182.634C61.5663 186.666 58.4943 189.612 55.0923 189.612Z" fill="#E6E6E6"/>
<path d="M90.084 193.314H91.74L94.878 229.44H93.222L90.084 193.314Z" fill="#E0E0E0"/>
<path d="M83.8682 193.314H85.5242L88.6622 229.44H87.0062L83.8682 193.314Z" fill="#E0E0E0"/>
<path d="M51.1026 193.314H49.4466L46.3086 229.44H47.9646L51.1026 193.314Z" fill="#E0E0E0"/>
<path d="M57.3184 193.314H55.6624L52.5244 229.44H54.1804L57.3184 193.314Z" fill="#E0E0E0"/>
<path d="M150 256.536C214.25 256.536 266.334 253.495 266.334 249.744C266.334 245.993 214.25 242.952 150 242.952C85.7505 242.952 33.666 245.993 33.666 249.744C33.666 253.495 85.7505 256.536 150 256.536Z" fill="#F5F5F5"/>
<path d="M221.706 118.164H78.2942C73.8422 118.164 70.2002 114.522 70.2002 110.07V55.194C70.2002 50.742 73.8422 47.1 78.2942 47.1H221.712C226.164 47.1 229.806 50.742 229.806 55.194V110.076C229.8 114.522 226.158 118.164 221.706 118.164Z" fill="url(#paint0_linear_293_7449)"/>
<path opacity="0.6" d="M221.706 118.164H78.2942C73.8422 118.164 70.2002 114.522 70.2002 110.07V55.194C70.2002 50.742 73.8422 47.1 78.2942 47.1H221.712C226.164 47.1 229.806 50.742 229.806 55.194V110.076C229.8 114.522 226.158 118.164 221.706 118.164Z" fill="white"/>
<path opacity="0.9" d="M78.294 116.364C74.826 116.364 72 113.544 72 110.07V55.194C72 51.726 74.826 48.9 78.294 48.9H221.712C225.18 48.9 228.006 51.72 228.006 55.194V110.076C228.006 113.544 225.18 116.37 221.712 116.37H78.294V116.364Z" fill="white"/>
<path d="M135.75 77.406V73.11H137.37C137.658 73.11 137.874 73.122 138.024 73.152C138.234 73.188 138.414 73.254 138.552 73.35C138.696 73.446 138.81 73.584 138.894 73.764C138.984 73.944 139.026 74.136 139.026 74.352C139.026 74.718 138.912 75.024 138.678 75.282C138.444 75.534 138.024 75.66 137.418 75.66H136.314V77.406H135.75ZM136.314 75.15H137.424C137.79 75.15 138.054 75.084 138.204 74.946C138.36 74.808 138.438 74.616 138.438 74.37C138.438 74.19 138.39 74.034 138.3 73.908C138.21 73.782 138.09 73.698 137.94 73.656C137.844 73.632 137.67 73.62 137.412 73.62H136.314V75.15Z" fill="#263238"/>
<path d="M139.674 77.4061V74.2921H140.148V74.7661C140.268 74.5441 140.382 74.4001 140.484 74.3281C140.586 74.2561 140.7 74.2201 140.82 74.2201C141 74.2201 141.18 74.2741 141.36 74.3881L141.18 74.8801C141.054 74.8021 140.922 74.7661 140.796 74.7661C140.682 74.7661 140.58 74.8021 140.484 74.8681C140.394 74.9401 140.328 75.0361 140.286 75.1561C140.226 75.3421 140.196 75.5461 140.196 75.7741V77.4001H139.674V77.4061Z" fill="#263238"/>
<path d="M141.486 75.852C141.486 75.276 141.648 74.85 141.966 74.574C142.236 74.346 142.56 74.226 142.944 74.226C143.37 74.226 143.724 74.364 143.994 74.646C144.264 74.928 144.402 75.312 144.402 75.81C144.402 76.212 144.342 76.524 144.222 76.752C144.102 76.98 143.928 77.16 143.694 77.286C143.466 77.412 143.214 77.478 142.944 77.478C142.506 77.478 142.158 77.3399 141.888 77.0579C141.618 76.7759 141.486 76.374 141.486 75.852ZM142.026 75.852C142.026 76.248 142.11 76.548 142.284 76.746C142.458 76.944 142.674 77.046 142.938 77.046C143.202 77.046 143.418 76.944 143.592 76.746C143.766 76.548 143.85 76.242 143.85 75.834C143.85 75.45 143.76 75.156 143.586 74.958C143.412 74.76 143.196 74.658 142.932 74.658C142.668 74.658 142.452 74.754 142.278 74.952C142.11 75.15 142.026 75.45 142.026 75.852Z" fill="#263238"/>
<path d="M144.918 77.6639L145.428 77.7419C145.452 77.8979 145.506 78.0179 145.608 78.0899C145.74 78.1859 145.92 78.2339 146.142 78.2339C146.388 78.2339 146.574 78.1859 146.706 78.0899C146.838 77.9939 146.928 77.8559 146.976 77.6819C147.006 77.5739 147.018 77.3459 147.012 77.0039C146.784 77.2739 146.496 77.4119 146.148 77.4119C145.722 77.4119 145.392 77.2559 145.152 76.9499C144.918 76.6439 144.798 76.2719 144.798 75.8399C144.798 75.5459 144.852 75.2699 144.96 75.0179C145.068 74.7659 145.224 74.5739 145.428 74.4359C145.632 74.2979 145.872 74.2319 146.148 74.2319C146.514 74.2319 146.82 74.3819 147.054 74.6759V74.3039H147.54V76.9919C147.54 77.4779 147.492 77.8199 147.39 78.0239C147.288 78.2279 147.132 78.3839 146.922 78.5039C146.706 78.6239 146.442 78.6779 146.13 78.6779C145.758 78.6779 145.458 78.5939 145.23 78.4259C145.026 78.2519 144.912 77.9999 144.918 77.6639ZM145.356 75.7919C145.356 76.1999 145.434 76.4999 145.602 76.6859C145.764 76.8719 145.968 76.9679 146.214 76.9679C146.454 76.9679 146.658 76.8719 146.826 76.6859C146.988 76.4999 147.072 76.2059 147.072 75.8099C147.072 75.4319 146.988 75.1439 146.82 74.9459C146.652 74.7539 146.448 74.6579 146.208 74.6579C145.974 74.6579 145.776 74.7539 145.608 74.9459C145.44 75.1379 145.356 75.4199 145.356 75.7919Z" fill="#263238"/>
<path d="M148.351 77.4061V74.2921H148.825V74.7661C148.945 74.5441 149.059 74.4001 149.161 74.3281C149.263 74.2561 149.377 74.2201 149.497 74.2201C149.677 74.2201 149.857 74.2741 150.037 74.3881L149.857 74.8801C149.731 74.8021 149.599 74.7661 149.473 74.7661C149.359 74.7661 149.257 74.8021 149.161 74.8681C149.065 74.9341 149.005 75.0361 148.963 75.1561C148.903 75.3421 148.873 75.5461 148.873 75.7741V77.4001H148.351V77.4061Z" fill="#263238"/>
<path d="M152.484 76.404L153.03 76.47C152.946 76.788 152.784 77.034 152.55 77.214C152.316 77.388 152.022 77.478 151.662 77.478C151.206 77.478 150.846 77.3399 150.582 77.0579C150.312 76.7759 150.18 76.386 150.18 75.876C150.18 75.354 150.312 74.946 150.582 74.658C150.852 74.37 151.2 74.226 151.632 74.226C152.046 74.226 152.388 74.37 152.652 74.652C152.916 74.934 153.048 75.336 153.048 75.846C153.048 75.876 153.048 75.924 153.048 75.984H150.726C150.744 76.326 150.84 76.59 151.014 76.77C151.188 76.95 151.404 77.0399 151.662 77.0399C151.854 77.0399 152.022 76.9919 152.16 76.8899C152.292 76.7879 152.4 76.626 152.484 76.404ZM150.75 75.552H152.49C152.466 75.288 152.4 75.096 152.292 74.964C152.124 74.76 151.908 74.658 151.638 74.658C151.398 74.658 151.194 74.742 151.026 74.904C150.858 75.06 150.768 75.276 150.75 75.552Z" fill="#263238"/>
<path d="M153.48 76.476L154.002 76.392C154.032 76.602 154.11 76.764 154.248 76.872C154.38 76.986 154.572 77.04 154.812 77.04C155.052 77.04 155.232 76.992 155.352 76.89C155.472 76.794 155.526 76.674 155.526 76.542C155.526 76.422 155.472 76.332 155.37 76.26C155.298 76.212 155.118 76.152 154.83 76.08C154.446 75.984 154.176 75.9 154.026 75.828C153.876 75.756 153.762 75.66 153.684 75.534C153.606 75.408 153.57 75.27 153.57 75.114C153.57 74.976 153.6 74.844 153.666 74.73C153.732 74.61 153.816 74.514 153.924 74.436C154.008 74.376 154.116 74.322 154.26 74.28C154.404 74.238 154.554 74.22 154.716 74.22C154.962 74.22 155.172 74.256 155.358 74.328C155.544 74.4 155.676 74.496 155.766 74.616C155.856 74.736 155.916 74.898 155.946 75.096L155.43 75.168C155.406 75.006 155.34 74.88 155.226 74.796C155.112 74.706 154.956 74.664 154.752 74.664C154.512 74.664 154.338 74.706 154.236 74.784C154.134 74.862 154.08 74.958 154.08 75.066C154.08 75.132 154.104 75.198 154.146 75.252C154.188 75.306 154.254 75.354 154.35 75.39C154.404 75.408 154.56 75.456 154.818 75.522C155.19 75.624 155.454 75.702 155.598 75.768C155.748 75.834 155.862 75.924 155.946 76.044C156.03 76.164 156.072 76.314 156.072 76.494C156.072 76.668 156.024 76.836 155.916 76.992C155.814 77.148 155.664 77.268 155.472 77.352C155.28 77.436 155.058 77.478 154.818 77.478C154.416 77.478 154.104 77.394 153.894 77.226C153.672 77.058 153.54 76.806 153.48 76.476Z" fill="#263238"/>
<path d="M156.48 76.4761L157.002 76.3921C157.032 76.6021 157.11 76.7641 157.248 76.8721C157.38 76.9861 157.572 77.0401 157.812 77.0401C158.052 77.0401 158.232 76.9921 158.352 76.8901C158.472 76.7941 158.526 76.6741 158.526 76.5421C158.526 76.4221 158.472 76.3321 158.37 76.2601C158.298 76.2121 158.118 76.1521 157.83 76.0801C157.446 75.9841 157.176 75.9001 157.026 75.8281C156.876 75.7561 156.762 75.6601 156.684 75.5341C156.606 75.4081 156.57 75.2701 156.57 75.1141C156.57 74.9761 156.6 74.8441 156.666 74.7301C156.732 74.6101 156.816 74.5141 156.924 74.4361C157.008 74.3761 157.116 74.3221 157.26 74.2801C157.404 74.2381 157.554 74.2201 157.716 74.2201C157.962 74.2201 158.172 74.2561 158.358 74.3281C158.544 74.4001 158.676 74.4961 158.766 74.6161C158.856 74.7361 158.916 74.8981 158.946 75.0961L158.43 75.1681C158.406 75.0061 158.34 74.8801 158.226 74.7961C158.112 74.7061 157.956 74.6641 157.752 74.6641C157.512 74.6641 157.338 74.7061 157.236 74.7841C157.134 74.8621 157.08 74.9581 157.08 75.0661C157.08 75.1321 157.104 75.1981 157.146 75.2521C157.188 75.3061 157.254 75.3541 157.35 75.3901C157.404 75.4081 157.56 75.4561 157.818 75.5221C158.19 75.6241 158.454 75.7021 158.598 75.7681C158.748 75.8341 158.862 75.9241 158.946 76.0441C159.03 76.1641 159.072 76.3141 159.072 76.4941C159.072 76.6681 159.024 76.8361 158.916 76.9921C158.814 77.1481 158.664 77.2681 158.472 77.3521C158.28 77.4361 158.058 77.4781 157.818 77.4781C157.416 77.4781 157.104 77.3941 156.894 77.2261C156.672 77.0581 156.534 76.8061 156.48 76.4761Z" fill="#263238"/>
<path d="M159.84 77.406V76.806H160.44V77.406H159.84Z" fill="#263238"/>
<path d="M161.508 77.4059V76.8059H162.108V77.4059H161.508Z" fill="#263238"/>
<path d="M163.17 77.406V76.806H163.77V77.406H163.17Z" fill="#263238"/>
<path opacity="0.7" d="M221.706 48.9H78.294C74.826 48.9 72 51.72 72 55.194V61.938H228V55.194C228 51.726 225.174 48.9 221.706 48.9Z" fill="url(#paint1_linear_293_7449)"/>
<path d="M84.4985 55.422C84.4985 54.162 83.4785 53.142 82.2185 53.142C80.9585 53.142 79.9385 54.162 79.9385 55.422C79.9385 56.682 80.9585 57.702 82.2185 57.702C83.4785 57.702 84.4985 56.682 84.4985 55.422Z" fill="white"/>
<path d="M93.4985 55.422C93.4985 54.162 92.4785 53.142 91.2185 53.142C89.9585 53.142 88.9385 54.162 88.9385 55.422C88.9385 56.682 89.9585 57.702 91.2185 57.702C92.4785 57.702 93.4985 56.682 93.4985 55.422Z" fill="white"/>
<path d="M102.498 55.422C102.498 54.162 101.478 53.142 100.218 53.142C98.9585 53.142 97.9385 54.162 97.9385 55.422C97.9385 56.682 98.9585 57.702 100.218 57.702C101.478 57.702 102.498 56.682 102.498 55.422Z" fill="white"/>
<path opacity="0.1" d="M217.404 91.404H82.5965C81.4985 91.404 80.6045 90.504 80.6045 89.412C80.6045 88.314 81.5045 87.42 82.5965 87.42H217.404C218.503 87.42 219.396 88.32 219.396 89.412C219.402 90.51 218.503 91.404 217.404 91.404Z" fill="url(#paint2_linear_293_7449)"/>
<path d="M182.707 91.404H82.5965C81.4985 91.404 80.6045 90.504 80.6045 89.412C80.6045 88.314 81.5045 87.42 82.5965 87.42H182.707C183.805 87.42 184.698 88.32 184.698 89.412C184.698 90.51 183.805 91.404 182.707 91.404Z" fill="url(#paint3_linear_293_7449)"/>
<path d="M192.582 100.338H187.476L184.704 97.5659L181.932 100.338H176.826C175.62 100.338 174.636 101.322 174.636 102.528V108.876C174.636 110.082 175.62 111.066 176.826 111.066H192.588C193.794 111.066 194.778 110.082 194.778 108.876V102.528C194.772 101.322 193.788 100.338 192.582 100.338Z" fill="#263238"/>
<path d="M179.237 103.896H182.063V104.55C181.817 104.772 181.613 105.012 181.445 105.27C181.247 105.582 181.085 105.936 180.971 106.32C180.881 106.62 180.815 106.974 180.785 107.382H179.819C179.897 106.812 180.017 106.338 180.179 105.948C180.341 105.564 180.599 105.15 180.953 104.712H179.231V103.896H179.237Z" fill="white"/>
<path d="M182.868 103.896H185.166V104.67H183.606L183.522 105.192C183.63 105.144 183.738 105.102 183.84 105.078C183.942 105.054 184.05 105.042 184.152 105.042C184.5 105.042 184.782 105.15 185.004 105.36C185.22 105.57 185.328 105.834 185.328 106.158C185.328 106.386 185.274 106.602 185.16 106.806C185.046 107.016 184.89 107.172 184.686 107.28C184.482 107.388 184.218 107.442 183.9 107.442C183.672 107.442 183.474 107.418 183.306 107.376C183.144 107.334 183 107.268 182.886 107.178C182.772 107.094 182.676 106.992 182.604 106.884C182.532 106.776 182.472 106.638 182.424 106.476L183.402 106.368C183.426 106.524 183.48 106.644 183.57 106.728C183.66 106.812 183.762 106.848 183.882 106.848C184.014 106.848 184.128 106.794 184.218 106.692C184.308 106.59 184.35 106.44 184.35 106.236C184.35 106.026 184.308 105.876 184.218 105.78C184.128 105.684 184.008 105.636 183.864 105.636C183.768 105.636 183.678 105.66 183.594 105.708C183.528 105.744 183.456 105.804 183.378 105.888L182.55 105.768L182.868 103.896Z" fill="white"/>
<path d="M185.76 104.754C185.76 104.592 185.796 104.436 185.868 104.292C185.94 104.148 186.048 104.034 186.192 103.956C186.336 103.878 186.51 103.836 186.708 103.836C187.002 103.836 187.23 103.92 187.398 104.088C187.566 104.256 187.65 104.478 187.65 104.754C187.65 105.036 187.566 105.258 187.398 105.42C187.23 105.588 187.002 105.672 186.708 105.672C186.51 105.672 186.336 105.63 186.192 105.552C186.048 105.474 185.94 105.36 185.868 105.216C185.796 105.072 185.76 104.916 185.76 104.754ZM186.426 104.76C186.426 104.958 186.456 105.102 186.522 105.186C186.564 105.246 186.624 105.276 186.702 105.276C186.78 105.276 186.84 105.246 186.882 105.186C186.948 105.096 186.978 104.952 186.978 104.76C186.978 104.562 186.948 104.424 186.882 104.334C186.84 104.274 186.78 104.25 186.702 104.25C186.624 104.25 186.564 104.28 186.522 104.334C186.456 104.418 186.426 104.562 186.426 104.76ZM188.718 103.836H189.222L187.206 107.562H186.708L188.718 103.836ZM188.274 106.638C188.274 106.476 188.31 106.32 188.376 106.176C188.448 106.032 188.556 105.918 188.7 105.84C188.844 105.762 189.018 105.72 189.216 105.72C189.51 105.72 189.738 105.804 189.906 105.972C190.074 106.14 190.158 106.362 190.158 106.638C190.158 106.914 190.074 107.136 189.906 107.304C189.738 107.472 189.51 107.556 189.216 107.556C189.018 107.556 188.85 107.514 188.7 107.436C188.55 107.358 188.448 107.244 188.376 107.1C188.31 106.956 188.274 106.8 188.274 106.638ZM188.94 106.644C188.94 106.842 188.97 106.986 189.036 107.07C189.078 107.13 189.138 107.154 189.216 107.154C189.294 107.154 189.354 107.124 189.396 107.07C189.462 106.98 189.492 106.836 189.492 106.644C189.492 106.452 189.462 106.302 189.396 106.212C189.354 106.152 189.294 106.128 189.216 106.128C189.138 106.128 189.078 106.158 189.036 106.218C188.976 106.302 188.94 106.446 188.94 106.644Z" fill="white"/>
<path opacity="0.1" d="M149.815 113.232L150.421 110.706C150.553 110.166 150.211 109.722 149.671 109.722H140.545C139.051 101.514 133.741 95.4779 135.271 85.5119C138.271 80.7959 127.483 63.2699 119.629 73.8059C109.471 74.4719 118.867 93.5279 99.5405 98.3999C85.3265 101.982 77.5325 110.232 74.3945 117.156C75.5525 117.798 76.8845 118.17 78.2945 118.17H78.6545C80.8145 113.532 83.4305 110.916 83.5925 110.76C83.5145 110.934 82.1105 114.024 80.8505 118.17H150.697L150.871 114.258C150.901 113.61 150.391 113.166 149.815 113.232Z" fill="url(#paint4_linear_293_7449)"/>
<path d="M128.736 116.778C127.56 125.898 126.18 143.886 101.214 145.668C84.7264 146.838 77.4964 131.166 67.1164 126.054C68.0344 118.566 71.4724 111.024 71.5924 110.754C71.3644 110.976 66.2404 116.064 64.4284 124.884C63.2404 124.446 62.0104 124.086 60.7324 123.834C60.7324 116.778 68.2024 103.266 87.5344 98.394C106.86 93.522 97.4644 74.466 107.622 73.8C115.476 63.264 126.264 80.79 123.264 85.506C121.332 98.106 130.326 104.412 128.736 116.778Z" fill="#263238"/>
<path d="M138.162 117.126C137.928 115.74 136.272 115.128 135.198 116.04L132.18 118.584C131.826 119.04 131.718 119.64 131.886 120.186L132.42 121.938C133.836 122.088 135.366 121.734 136.56 121.338C137.82 120.918 138.588 119.652 138.366 118.338L138.162 117.126Z" fill="#FFB573"/>
<path d="M121.188 106.632C121.308 107.298 121.47 108.108 121.626 108.852C121.788 109.614 121.95 110.376 122.136 111.132C122.49 112.65 122.904 114.15 123.342 115.626C123.798 117.096 124.308 118.536 124.86 119.934C125.442 121.314 126.078 122.64 126.792 123.864L125.244 122.634C125.496 122.766 125.766 122.922 126.324 122.85C126.864 122.79 127.584 122.544 128.31 122.154C129.042 121.77 129.798 121.266 130.542 120.702C131.28 120.15 132.042 119.484 132.72 118.896L132.858 118.776C133.608 118.128 134.748 118.206 135.396 118.962C135.876 119.52 135.954 120.282 135.66 120.906C135.138 122.016 134.568 122.934 133.884 123.888C133.2 124.824 132.414 125.712 131.472 126.546C130.518 127.356 129.408 128.154 127.95 128.652C127.23 128.904 126.414 129.078 125.544 129.102C124.68 129.132 123.774 128.988 122.928 128.712C122.334 128.52 121.848 128.142 121.512 127.668L121.38 127.488C120.3 125.958 119.37 124.374 118.584 122.76C117.81 121.146 117.132 119.508 116.556 117.852C115.974 116.196 115.488 114.528 115.068 112.842C114.864 111.996 114.66 111.156 114.498 110.304C114.324 109.44 114.186 108.624 114.048 107.664C113.772 105.696 115.146 103.878 117.12 103.602C119.04 103.338 120.816 104.634 121.158 106.524L121.188 106.632Z" fill="#FFB573"/>
<path d="M79.3925 232.404C78.4625 228.198 78.6964 227.208 77.9404 224.904C77.2924 222.924 77.2444 223.044 76.2484 221.19C75.5884 219.96 76.8425 218.982 78.0965 218.826C79.0745 218.706 80.1064 218.658 81.3064 218.466L83.8984 223.302C82.5304 225.042 81.4384 229.284 81.9184 232.536C82.2604 234.864 79.7645 234.09 79.3925 232.404Z" fill="url(#paint5_linear_293_7449)"/>
<path d="M121.176 132.342C121.176 132.342 121.86 167.91 122.586 187.608C124.494 199.272 84.402 223.548 84.402 223.548C83.544 223.956 81.276 219.51 81.306 218.472C81.306 218.472 98.55 193.074 108.822 186.942C97.452 155.478 100.542 132.342 100.542 132.342H121.176Z" fill="#263238"/>
<path opacity="0.2" d="M100.543 132.342H113.557C113.557 132.342 110.959 167.106 108.055 184.758C97.5967 154.41 100.543 132.342 100.543 132.342Z" fill="black"/>
<path opacity="0.2" d="M92.4966 203.388C97.4346 197.226 103.147 190.812 107.737 187.644C107.083 193.74 106.411 201.096 105.895 208.626C101.581 212.04 97.1046 215.214 93.3606 217.752C92.7666 212.94 92.4126 208.014 92.4966 203.388Z" fill="black"/>
<path d="M86.916 222.666C86.394 223.044 85.464 223.716 84.792 224.238C84.57 224.412 84.258 224.37 84.078 224.154C82.74 222.522 81.216 219.51 80.724 218.514C80.628 218.316 80.67 218.082 80.826 217.926L82.506 216.258C82.734 216.03 83.112 216.066 83.292 216.336L87.042 221.964C87.192 222.198 87.138 222.504 86.916 222.666Z" fill="url(#paint6_linear_293_7449)"/>
<path opacity="0.3" d="M86.916 222.666C86.394 223.044 85.464 223.716 84.792 224.238C84.57 224.412 84.258 224.37 84.078 224.154C82.74 222.522 81.216 219.51 80.724 218.514C80.628 218.316 80.67 218.082 80.826 217.926L82.506 216.258C82.734 216.03 83.112 216.066 83.292 216.336L87.042 221.964C87.192 222.198 87.138 222.504 86.916 222.666Z" fill="white"/>
<path d="M106.242 252.744C101.856 252.744 102.168 252.678 99.6961 252.594C97.5781 252.516 97.0981 252.78 95.4001 252.744C93.9781 252.714 93.9121 251.358 94.2061 249.798C94.3561 249.012 94.6081 248.058 94.7941 246.792H101.454C102.516 248.52 104.436 249.816 106.938 250.146C109.32 250.458 107.994 252.744 106.242 252.744Z" fill="url(#paint7_linear_293_7449)"/>
<path d="M114.985 132.342C114.985 132.342 108.097 170.262 105.571 187.452C102.919 205.5 99.6545 234.804 101.449 246.792C100.477 247.386 96.8705 247.422 94.7885 246.792C94.7885 246.792 84.2645 205.626 93.0545 188.25C88.0505 146.01 95.4485 143.808 97.4945 132.342H114.985Z" fill="#263238"/>
<path d="M101.73 244.29C101.802 244.896 101.958 245.946 102.186 246.75C102.27 247.038 102.096 247.308 101.808 247.356C99.4081 247.746 95.8261 247.182 94.6861 246.978C94.4701 246.942 94.2901 246.768 94.2361 246.552L93.6661 244.248C93.5881 243.936 93.8101 243.648 94.1281 243.654L101.184 243.792C101.454 243.804 101.694 244.02 101.73 244.29Z" fill="url(#paint8_linear_293_7449)"/>
<path opacity="0.3" d="M101.73 244.29C101.802 244.896 101.958 245.946 102.186 246.75C102.27 247.038 102.096 247.308 101.808 247.356C99.4081 247.746 95.8261 247.182 94.6861 246.978C94.4701 246.942 94.2901 246.768 94.2361 246.552L93.6661 244.248C93.5881 243.936 93.8101 243.648 94.1281 243.654L101.184 243.792C101.454 243.804 101.694 244.02 101.73 244.29Z" fill="white"/>
<path d="M115.59 99.126C119.958 99.948 120.882 101.736 124.098 108.366C123.126 112.728 117.906 116.568 117.906 116.568C117.906 116.568 108.384 104.766 115.59 99.126Z" fill="white"/>
<path d="M97.5003 132.342C93.3963 137.934 88.9383 146.868 88.9023 166.068C110.196 175.668 120.33 175.668 125.4 173.268C121.746 158.46 121.176 132.342 121.176 132.342C117.798 128.598 97.5003 132.342 97.5003 132.342Z" fill="url(#paint9_linear_293_7449)"/>
<path opacity="0.2" d="M111.865 149.202C109.999 156.102 111.907 163.002 113.551 164.538C112.429 160.548 111.865 149.202 111.865 149.202Z" fill="black"/>
<path d="M122.515 107.388C122.587 109.716 122.359 112.53 121.837 118.068C121.483 122.76 122.653 131.682 121.177 132.336C117.445 133.386 107.653 132.906 97.5066 132.336C97.0266 125.616 97.2066 120.99 92.9526 105.984C91.9686 102.504 94.1646 99.1619 97.6746 98.8079C98.6106 98.7119 99.6066 98.6339 100.627 98.5859C104.599 98.3939 107.851 98.2679 111.379 98.5859C112.549 98.6939 113.761 98.8379 114.913 98.9999C119.089 99.5819 122.389 103.218 122.515 107.388Z" fill="white"/>
<path d="M104.442 88.1639C105.03 91.6979 103.464 96.2759 101.214 98.5859C101.214 98.5859 104.49 98.0939 111.444 102.396C113.46 99.5099 111.96 98.5859 111.96 98.5859C110.094 98.2259 110.094 96.8579 110.826 94.2299L104.442 88.1639Z" fill="#FFB573"/>
<path d="M109.986 101.532C107.694 101.856 106.98 105.318 106.98 105.318C106.98 105.318 101.478 101.424 99.7324 98.6819C100.548 98.2559 101.742 97.4039 101.742 97.4039C101.742 97.4039 108.648 100.206 109.986 101.532Z" fill="url(#paint10_linear_293_7449)"/>
<path d="M112.165 101.16C112.165 101.16 113.983 101.556 114.895 104.082C115.417 99.0359 113.029 98.5739 113.029 98.5739C113.029 98.5739 112.285 97.9319 110.929 98.1479C112.747 99.1079 112.165 101.16 112.165 101.16Z" fill="url(#paint11_linear_293_7449)"/>
<path opacity="0.2" d="M110.832 94.2359L107.082 90.6719C107.148 91.3019 107.25 92.0219 107.388 92.7479C107.742 94.6139 109.044 96.3359 110.448 97.3619C110.268 96.6419 110.448 95.6159 110.832 94.2359Z" fill="black"/>
<path d="M105.894 80.0579C104.424 85.5479 103.692 87.8339 105.408 91.6259C107.988 97.3319 114.846 98.2559 117.876 93.3959C120.6 89.0219 122.544 80.7779 118.152 76.6259C113.826 72.5399 107.364 74.5679 105.894 80.0579Z" fill="#FFB573"/>
<path d="M108.108 74.7119C108.96 81.2759 117.6 77.4479 122.85 85.0499C122.352 78.5519 115.992 69.3719 108.108 74.7119Z" fill="#263238"/>
<path d="M108.649 74.4659C116.029 79.3979 107.947 83.3939 102.499 83.0999C100.699 77.6519 108.649 74.4659 108.649 74.4659Z" fill="#263238"/>
<path opacity="0.2" d="M112.375 84.186C112.375 84.186 111.577 83.136 110.479 83.1C111.391 83.892 112.375 84.186 112.375 84.186Z" fill="black"/>
<path opacity="0.2" d="M112.087 84.618C112.087 84.618 111.175 83.832 110.179 84.09C111.145 84.606 112.087 84.618 112.087 84.618Z" fill="black"/>
<path d="M113.467 84.7199C113.323 85.1759 113.437 85.6319 113.719 85.7459C114.001 85.8539 114.349 85.5779 114.487 85.1219C114.631 84.6659 114.517 84.2099 114.235 84.0959C113.953 83.9879 113.611 84.2699 113.467 84.7199Z" fill="#263238"/>
<path d="M118.759 86.886C118.615 87.342 118.729 87.798 119.011 87.912C119.293 88.02 119.641 87.744 119.779 87.288C119.923 86.832 119.809 86.376 119.527 86.262C119.245 86.154 118.897 86.43 118.759 86.886Z" fill="#263238"/>
<path d="M119.395 86.2379L120.529 86.3279C120.529 86.3279 119.731 86.9759 119.395 86.2379Z" fill="#263238"/>
<path d="M117.042 87.054C117.042 87.054 117.156 89.304 117.666 90.564C116.922 90.9 116.028 90.264 116.028 90.264L117.042 87.054Z" fill="#ED893E"/>
<path d="M113.016 90.9719C113.226 91.1039 113.46 91.2179 113.718 91.3199C113.79 91.3499 113.862 91.3079 113.886 91.2359C113.91 91.1639 113.874 91.0799 113.802 91.0499C111.906 90.3059 111.462 88.5659 111.456 88.5479C111.438 88.4699 111.366 88.4219 111.294 88.4399C111.222 88.4579 111.18 88.5359 111.198 88.6079C111.216 88.6799 111.576 90.0839 113.016 90.9719Z" fill="#263238"/>
<path d="M103.206 83.7119C103.218 84.9899 103.746 86.0399 104.424 86.6279C105.438 87.5099 106.602 86.4239 106.866 84.8939C107.106 83.5199 106.866 81.4079 105.588 81.1379C104.322 80.8679 103.2 82.2479 103.206 83.7119Z" fill="#FFB573"/>
<path d="M113.304 81.7499C113.376 81.7679 113.448 81.7619 113.514 81.7199C114.504 81.0659 115.428 81.5099 115.44 81.5099C115.578 81.5759 115.734 81.5159 115.794 81.3779C115.848 81.2399 115.788 81.0659 115.65 80.9999C115.602 80.9759 114.444 80.4239 113.214 81.2339C113.094 81.3119 113.058 81.4859 113.142 81.6239C113.178 81.6839 113.238 81.7319 113.304 81.7499Z" fill="#263238"/>
<path d="M121.296 85.026C121.362 85.056 121.428 85.056 121.494 85.032C121.632 84.978 121.692 84.81 121.626 84.666C121.014 83.208 119.784 82.92 119.73 82.908C119.58 82.878 119.442 82.974 119.424 83.124C119.4 83.274 119.502 83.424 119.646 83.46C119.694 83.472 120.642 83.706 121.134 84.87C121.17 84.942 121.23 84.996 121.296 85.026Z" fill="#263238"/>
<path d="M114.103 84.0719L115.243 84.1619C115.243 84.1679 114.439 84.8099 114.103 84.0719Z" fill="#263238"/>
<path d="M96.4859 107.778L94.6739 111.498C94.0739 112.752 93.4919 114.012 92.9339 115.266C92.3879 116.526 91.8479 117.78 91.3859 119.022C90.9359 120.264 90.5099 121.5 90.2579 122.634L90.1439 121.146C90.1199 121.206 90.2459 121.512 90.4559 121.86C90.6659 122.208 90.9719 122.598 91.3139 122.988C92.0039 123.768 92.8319 124.572 93.7139 125.34C94.5899 126.12 95.5259 126.882 96.4799 127.638C97.4219 128.394 98.4239 129.144 99.3659 129.876L99.4199 129.918C100.206 130.53 100.35 131.664 99.7379 132.45C99.2579 133.068 98.4479 133.284 97.7459 133.056C96.4619 132.63 95.2799 132.132 94.0799 131.586C92.8859 131.034 91.7159 130.428 90.5579 129.744C89.4059 129.042 88.2539 128.298 87.1319 127.332C86.5739 126.846 86.0099 126.33 85.4639 125.676C84.9179 125.022 84.3659 124.254 83.9519 123.114C83.8019 122.706 83.7599 122.28 83.8079 121.878L83.8379 121.626C84.0539 119.91 84.4259 118.374 84.8639 116.874C85.2899 115.374 85.8059 113.946 86.3519 112.542C86.8859 111.132 87.4919 109.764 88.1099 108.408C88.7459 107.046 89.3819 105.744 90.1439 104.382C91.1099 102.648 93.3059 102.024 95.0399 102.99C96.7139 103.926 97.3559 105.996 96.5279 107.7L96.4859 107.778Z" fill="#FFB573"/>
<path d="M97.4522 98.838C93.5522 98.826 91.8422 99.744 87.5342 106.908C88.5002 109.986 94.6802 113.748 94.6802 113.748C94.6802 113.748 101.34 105.162 97.4522 98.838Z" fill="white"/>
<path d="M103.962 134.676L103.758 132.924C103.68 132.264 103.29 131.682 102.714 131.358L99.996 129.858C98.91 129.258 97.602 129.222 96.48 129.756L95.79 130.086C95.922 133.02 98.232 136.092 98.232 136.092L98.79 137.04C99.288 137.886 100.308 138.174 101.13 137.7L103.026 136.614C103.68 136.236 104.052 135.468 103.962 134.676Z" fill="#FFB573"/>
<path d="M134.293 123.834H113.725C113.185 123.834 112.843 123.39 112.975 122.85L115.879 110.706C116.011 110.166 116.557 109.722 117.103 109.722H137.671C138.211 109.722 138.553 110.166 138.421 110.706L135.517 122.85C135.385 123.39 134.833 123.834 134.293 123.834Z" fill="url(#paint12_linear_293_7449)"/>
<path d="M113.803 122.856C113.791 122.856 113.779 122.856 113.767 122.85C113.689 122.832 113.635 122.748 113.653 122.67L116.365 111.342C116.509 110.736 117.127 110.238 117.733 110.238H137.317C137.401 110.238 137.467 110.304 137.467 110.388C137.467 110.472 137.401 110.538 137.317 110.538H117.733C117.265 110.538 116.767 110.94 116.659 111.408L113.947 122.736C113.935 122.814 113.875 122.856 113.803 122.856Z" fill="white"/>
<path d="M137.479 113.316L137.203 113.442C136.351 113.832 135.751 114.672 135.697 115.554L135.535 118.116C135.463 119.226 136.261 120.078 137.371 120.066H137.539C138.127 120.06 138.637 119.55 138.667 118.938L138.877 114.252C138.907 113.484 138.181 112.998 137.479 113.316Z" fill="#FFB573"/>
<path d="M200.442 223.584C198.48 214.788 202.404 193.686 204.06 188.91C205.716 184.134 217.068 178.422 223.974 175.332C230.874 172.242 243.51 180.654 243.51 180.654C243.51 180.654 230.394 179.274 226.62 181.158C222.852 183.036 214.824 188.796 212.19 193.722C209.556 198.648 200.862 213.264 200.442 223.584Z" fill="#263238"/>
<path d="M176.484 189.666C185.514 190.614 192.918 196.788 195.27 198.684C197.622 200.58 198.552 208.116 198.906 212.622C199.254 217.128 191.976 222.546 191.976 222.546C191.976 222.546 195.39 215.442 195.09 212.94C194.79 210.438 193.164 204.762 190.92 202.29C188.682 199.818 183.72 193.332 176.484 189.666Z" fill="#263238"/>
<path d="M197.941 217.878C198.787 205.554 192.895 197.436 193.735 187.68C194.575 177.924 205.579 156.15 206.527 150C208.357 155.448 200.401 181.65 200.749 188.754C201.097 195.864 204.841 210.192 197.941 217.878Z" fill="url(#paint13_linear_293_7449)"/>
<path opacity="0.6" d="M197.941 217.878C198.787 205.554 192.895 197.436 193.735 187.68C194.575 177.924 205.579 156.15 206.527 150C208.357 155.448 200.401 181.65 200.749 188.754C201.097 195.864 204.841 210.192 197.941 217.878Z" fill="white"/>
<path d="M188.941 170.094C194.185 171.066 195.295 175.686 195.295 175.686C195.295 175.686 192.385 179.562 187.141 178.59C183.133 177.846 181.729 175.614 182.227 173.268C182.719 170.922 184.933 169.35 188.941 170.094Z" fill="url(#paint14_linear_293_7449)"/>
<path d="M201.451 176.214C199.873 179.382 196.723 179.25 196.723 179.25C196.723 179.25 194.779 176.682 196.357 173.514C197.563 171.09 199.243 170.604 200.653 171.348C202.057 172.092 202.657 173.79 201.451 176.214Z" fill="url(#paint15_linear_293_7449)"/>
<path d="M198.738 197.028C201.234 199.536 200.1 202.476 200.1 202.476C200.1 202.476 197.046 203.496 194.55 200.988C192.642 199.074 192.72 197.322 193.872 196.23C195.03 195.132 196.83 195.108 198.738 197.028Z" fill="url(#paint16_linear_293_7449)"/>
<path d="M203.557 208.284C201.835 209.634 200.113 208.722 200.113 208.722C200.113 208.722 199.711 206.778 201.433 205.422C202.747 204.39 203.815 204.564 204.403 205.35C204.991 206.148 204.871 207.252 203.557 208.284Z" fill="url(#paint17_linear_293_7449)"/>
<path d="M207.301 191.172C204.019 194.862 199.825 193.524 199.825 193.524C199.825 193.524 198.151 189.36 201.439 185.67C203.947 182.85 206.395 182.814 208.015 184.332C209.629 185.85 209.809 188.352 207.301 191.172Z" fill="url(#paint18_linear_293_7449)"/>
<path d="M198.451 218.286C198.433 218.286 198.415 218.286 198.397 218.28C198.235 218.25 198.127 218.094 198.157 217.932C202.417 195.684 198.463 176.364 186.397 160.512C186.295 160.38 186.325 160.194 186.457 160.092C186.589 159.99 186.775 160.02 186.877 160.146C199.045 176.136 203.041 195.618 198.745 218.04C198.715 218.19 198.589 218.286 198.451 218.286Z" fill="#263238"/>
<path d="M187.789 153.588C191.563 158.52 188.911 163.374 188.911 163.374C188.911 163.374 183.373 164.448 179.599 159.516C176.719 155.748 177.247 152.718 179.509 151.08C181.771 149.442 184.909 149.82 187.789 153.588Z" fill="url(#paint19_linear_293_7449)"/>
<path d="M184.943 218.874L184.28 228.283L184.879 228.325L185.542 218.916L184.943 218.874Z" fill="url(#paint20_linear_293_7449)"/>
<path d="M184.036 231.572L183.753 235.582L184.351 235.624L184.634 231.614L184.036 231.572Z" fill="url(#paint21_linear_293_7449)"/>
<path d="M213.804 211.698H187.566L184.854 249.768H216.522L213.804 211.698Z" fill="url(#paint22_linear_293_7449)"/>
<path d="M220.369 245.232C212.245 245.232 205.633 238.62 205.633 230.496C205.633 222.372 212.245 215.76 220.369 215.76C228.493 215.76 235.105 222.372 235.105 230.496C235.105 238.62 228.493 245.232 220.369 245.232ZM220.369 216.96C212.905 216.96 206.833 223.032 206.833 230.496C206.833 237.96 212.905 244.032 220.369 244.032C227.833 244.032 233.905 237.96 233.905 230.496C233.905 223.032 227.833 216.96 220.369 216.96Z" fill="url(#paint23_linear_293_7449)"/>
<defs>
<linearGradient id="paint0_linear_293_7449" x1="70.2002" y1="82.632" x2="229.806" y2="82.632" gradientUnits="userSpaceOnUse">
<stop stop-color="#4A58F9"/>
<stop offset="1" stop-color="#8BEAFE"/>
</linearGradient>
<linearGradient id="paint1_linear_293_7449" x1="72" y1="55.419" x2="228" y2="55.419" gradientUnits="userSpaceOnUse">
<stop stop-color="#4A58F9"/>
<stop offset="1" stop-color="#8BEAFE"/>
</linearGradient>
<linearGradient id="paint2_linear_293_7449" x1="80.6045" y1="89.412" x2="219.397" y2="89.412" gradientUnits="userSpaceOnUse">
<stop stop-color="#4A58F9"/>
<stop offset="1" stop-color="#8BEAFE"/>
</linearGradient>
<linearGradient id="paint3_linear_293_7449" x1="80.6045" y1="89.412" x2="184.698" y2="89.412" gradientUnits="userSpaceOnUse">
<stop stop-color="#4A58F9"/>
<stop offset="1" stop-color="#8BEAFE"/>
</linearGradient>
<linearGradient id="paint4_linear_293_7449" x1="74.3945" y1="94.3302" x2="150.872" y2="94.3302" gradientUnits="userSpaceOnUse">
<stop stop-color="#4A58F9"/>
<stop offset="1" stop-color="#8BEAFE"/>
</linearGradient>
<linearGradient id="paint5_linear_293_7449" x1="76.0664" y1="226.23" x2="83.8984" y2="226.23" gradientUnits="userSpaceOnUse">
<stop stop-color="#4A58F9"/>
<stop offset="1" stop-color="#8BEAFE"/>
</linearGradient>
<linearGradient id="paint6_linear_293_7449" x1="80.6729" y1="220.227" x2="87.1266" y2="220.227" gradientUnits="userSpaceOnUse">
<stop stop-color="#4A58F9"/>
<stop offset="1" stop-color="#8BEAFE"/>
</linearGradient>
<linearGradient id="paint7_linear_293_7449" x1="94.0654" y1="249.77" x2="108.228" y2="249.77" gradientUnits="userSpaceOnUse">
<stop stop-color="#4A58F9"/>
<stop offset="1" stop-color="#8BEAFE"/>
</linearGradient>
<linearGradient id="paint8_linear_293_7449" x1="93.6504" y1="245.572" x2="102.207" y2="245.572" gradientUnits="userSpaceOnUse">
<stop stop-color="#4A58F9"/>
<stop offset="1" stop-color="#8BEAFE"/>
</linearGradient>
<linearGradient id="paint9_linear_293_7449" x1="88.9023" y1="152.64" x2="125.4" y2="152.64" gradientUnits="userSpaceOnUse">
<stop stop-color="#4A58F9"/>
<stop offset="1" stop-color="#8BEAFE"/>
</linearGradient>
<linearGradient id="paint10_linear_293_7449" x1="99.7324" y1="101.361" x2="109.986" y2="101.361" gradientUnits="userSpaceOnUse">
<stop stop-color="#4A58F9"/>
<stop offset="1" stop-color="#8BEAFE"/>
</linearGradient>
<linearGradient id="paint11_linear_293_7449" x1="110.929" y1="101.093" x2="114.969" y2="101.093" gradientUnits="userSpaceOnUse">
<stop stop-color="#4A58F9"/>
<stop offset="1" stop-color="#8BEAFE"/>
</linearGradient>
<linearGradient id="paint12_linear_293_7449" x1="112.946" y1="116.778" x2="138.449" y2="116.778" gradientUnits="userSpaceOnUse">
<stop stop-color="#4A58F9"/>
<stop offset="1" stop-color="#8BEAFE"/>
</linearGradient>
<linearGradient id="paint13_linear_293_7449" x1="193.652" y1="183.939" x2="206.8" y2="183.939" gradientUnits="userSpaceOnUse">
<stop stop-color="#4A58F9"/>
<stop offset="1" stop-color="#8BEAFE"/>
</linearGradient>
<linearGradient id="paint14_linear_293_7449" x1="182.131" y1="174.327" x2="195.295" y2="174.327" gradientUnits="userSpaceOnUse">
<stop stop-color="#4A58F9"/>
<stop offset="1" stop-color="#8BEAFE"/>
</linearGradient>
<linearGradient id="paint15_linear_293_7449" x1="195.739" y1="175.139" x2="202.099" y2="175.139" gradientUnits="userSpaceOnUse">
<stop stop-color="#4A58F9"/>
<stop offset="1" stop-color="#8BEAFE"/>
</linearGradient>
<linearGradient id="paint16_linear_293_7449" x1="193.053" y1="199.08" x2="200.357" y2="199.08" gradientUnits="userSpaceOnUse">
<stop stop-color="#4A58F9"/>
<stop offset="1" stop-color="#8BEAFE"/>
</linearGradient>
<linearGradient id="paint17_linear_293_7449" x1="200.072" y1="206.863" x2="204.74" y2="206.863" gradientUnits="userSpaceOnUse">
<stop stop-color="#4A58F9"/>
<stop offset="1" stop-color="#8BEAFE"/>
</linearGradient>
<linearGradient id="paint18_linear_293_7449" x1="199.398" y1="188.547" x2="209.21" y2="188.547" gradientUnits="userSpaceOnUse">
<stop stop-color="#4A58F9"/>
<stop offset="1" stop-color="#8BEAFE"/>
</linearGradient>
<linearGradient id="paint19_linear_293_7449" x1="177.622" y1="156.816" x2="189.816" y2="156.816" gradientUnits="userSpaceOnUse">
<stop stop-color="#4A58F9"/>
<stop offset="1" stop-color="#8BEAFE"/>
</linearGradient>
<linearGradient id="paint20_linear_293_7449" x1="184.58" y1="228.304" x2="185.243" y2="218.895" gradientUnits="userSpaceOnUse">
<stop stop-color="#4A58F9"/>
<stop offset="1" stop-color="#8BEAFE"/>
</linearGradient>
<linearGradient id="paint21_linear_293_7449" x1="184.052" y1="235.603" x2="184.335" y2="231.593" gradientUnits="userSpaceOnUse">
<stop stop-color="#4A58F9"/>
<stop offset="1" stop-color="#8BEAFE"/>
</linearGradient>
<linearGradient id="paint22_linear_293_7449" x1="184.854" y1="230.733" x2="216.522" y2="230.733" gradientUnits="userSpaceOnUse">
<stop stop-color="#4A58F9"/>
<stop offset="1" stop-color="#8BEAFE"/>
</linearGradient>
<linearGradient id="paint23_linear_293_7449" x1="205.633" y1="230.496" x2="235.105" y2="230.496" gradientUnits="userSpaceOnUse">
<stop stop-color="#4A58F9"/>
<stop offset="1" stop-color="#8BEAFE"/>
</linearGradient>
</defs>
</svg>
